<svg width="24" height="24" viewBox="0 0 24 24" fill="none" xmlns="http://www.w3.org/2000/svg">
<path d="M4.90681 4.7717H8.88422L10.1662 7.97672L8.10674 9.34972C7.8603 9.51401 7.71227 9.7906 7.71227 10.0868C7.71452 10.1697 7.71227 10.0877 7.71227 10.0877L7.71227 10.0886L7.71228 10.0906L7.71231 10.0951L7.71244 10.106C7.71257 10.1141 7.71279 10.1241 7.71317 10.1357C7.71391 10.1589 7.71527 10.1889 7.71769 10.2253C7.72254 10.298 7.73168 10.3963 7.74886 10.5166C7.78319 10.7569 7.84982 11.0861 7.97919 11.4742C8.23896 12.2535 8.74936 13.2625 9.74343 14.2566C10.7375 15.2506 11.7465 15.761 12.5258 16.0208C12.9139 16.1502 13.2431 16.2168 13.4834 16.2511C13.6037 16.2683 13.702 16.2775 13.7747 16.2823C13.8111 16.2847 13.8411 16.2861 13.8643 16.2868C13.8759 16.2872 13.8858 16.2874 13.894 16.2876L13.9049 16.2877L13.9094 16.2877L13.9114 16.2877L13.9123 16.2877C13.9123 16.2877 14.0112 16.2823 13.9132 16.2877C14.2487 16.2877 14.5555 16.0982 14.7055 15.798L15.2988 14.6115L19.2283 15.2665V19.0932C17.3582 19.3636 12.3075 19.6302 8.33866 15.6613C4.3698 11.6925 4.63636 6.64181 4.90681 4.7717ZM9.54921 10.5174L11.149 9.45087C11.8461 8.98613 12.1224 8.09662 11.8112 7.31873L10.5292 4.11371C10.2601 3.44107 9.60868 3 8.88422 3H4.86053C4.05573 3 3.29817 3.55911 3.16605 4.43233C2.86547 6.41893 2.45634 12.2846 7.08588 16.9141C11.7154 21.5437 17.5811 21.1345 19.5677 20.834C20.4409 20.7018 21 19.9443 21 19.1395V15.2665C21 14.4004 20.3739 13.6612 19.5196 13.5189L15.5901 12.8639C14.8229 12.7361 14.062 13.1235 13.7141 13.8192L13.4072 14.4331C13.3107 14.4094 13.203 14.379 13.086 14.34C12.5365 14.1569 11.7738 13.7814 10.9962 13.0038C10.2186 12.2262 9.84313 11.4635 9.65997 10.914C9.61048 10.7655 9.57485 10.632 9.54921 10.5174Z" fill="#181818"/>
</svg>
