<svg width="24" height="24" viewBox="0 0 24 24" fill="none" xmlns="http://www.w3.org/2000/svg">
<path d="M12.6508 2.2407C12.2763 1.91971 11.7233 1.92004 11.3488 2.24103L11.2604 2.3182C11.2055 2.36651 11.1266 2.43677 11.0269 2.52725C10.8277 2.70816 10.5454 2.97032 10.2077 3.30001C9.5335 3.95817 8.63218 4.89141 7.72807 5.98925C6.8264 7.08413 5.90543 8.3626 5.206 9.71151C4.51106 11.0518 4 12.5278 4 14C4 18.4182 7.58172 22 12 22C16.4183 22 20 18.4182 20 14C20 12.5278 19.4889 11.0518 18.794 9.71151C18.0946 8.3626 17.1736 7.08413 16.2719 5.98925C15.3678 4.89141 14.4665 3.95817 13.7923 3.30001C13.4546 2.97032 13.1723 2.70816 12.9731 2.52725L12.6508 2.2407ZM6 14C6 12.9721 6.36394 11.8232 6.9815 10.6321C7.59457 9.44981 8.4236 8.29078 9.27193 7.26066C10.1178 6.23351 10.9665 5.35424 11.6048 4.73116C11.7483 4.59106 11.8809 4.46422 12 4.35188C12.1191 4.46422 12.2517 4.59106 12.3952 4.73116C13.0335 5.35424 13.8822 6.23351 14.7281 7.26066C15.5764 8.29078 16.4054 9.44981 17.0185 10.6321C17.6361 11.8232 18 12.9721 18 14C18 17.3137 15.3137 20 12 20C8.68629 20 6 17.3137 6 14Z" fill="#181818"/>
<path d="M8.35964 14.0415C7.8303 14.1991 7.52889 14.7559 7.68643 15.2852C8.11874 16.7378 9.26213 17.8812 10.7147 18.3135C11.244 18.471 11.8009 18.1696 11.9584 17.6403C12.1159 17.1109 11.8145 16.5541 11.2852 16.3966C10.48 16.1569 9.84298 15.5199 9.60334 14.7147C9.4458 14.1854 8.88897 13.884 8.35964 14.0415Z" fill="#181818"/>
</svg>
