<svg width="16" height="16" viewBox="0 0 16 16" fill="none" xmlns="http://www.w3.org/2000/svg">
<path fill-rule="evenodd" clip-rule="evenodd" d="M2.95618 2.05188C2.27468 2.25714 1.69131 2.82721 1.27384 3.69591C0.940663 4.38922 0.590741 5.57432 0.261158 7.12583C0.0283265 8.22186 -0.02252 8.70046 0.00802869 9.50851C0.053525 10.7117 0.382414 11.7137 1.00662 12.5508C1.39183 13.0674 2.04029 13.6006 2.53634 13.8086C3.72807 14.3085 4.68455 13.8343 5.5322 12.3233L5.71962 11.9893H8.12206H10.5245L10.7377 12.3862C11.3035 13.4398 11.7406 13.8554 12.4068 13.9728C13.3707 14.1428 14.6816 13.245 15.377 11.9388C15.7682 11.2039 15.9559 10.4622 15.9919 9.50851C16.0227 8.69608 15.9715 8.21919 15.7345 7.10957C15.0605 3.95419 14.4304 2.66126 13.3238 2.16292C13.0426 2.03628 12.9612 2.01788 12.6205 2.00374C12.1537 1.98438 11.8677 2.03806 11.506 2.21287C10.8536 2.52827 9.64655 2.69383 7.99999 2.69383C6.38078 2.69383 5.1155 2.52339 4.52715 2.22604C4.40128 2.16245 4.19851 2.08519 4.07648 2.0544C3.80607 1.98616 3.17909 1.98477 2.95618 2.05188ZM3.92639 3.33435C4.34476 3.55611 5.06972 3.73065 6.03964 3.84319C6.88186 3.94094 9.11812 3.94094 9.96033 3.84319C10.9303 3.73065 11.6552 3.55611 12.0736 3.33435C12.3466 3.18966 12.6672 3.19698 12.8946 3.35313C13.4668 3.74618 13.9431 4.9637 14.4477 7.32257C14.6541 8.28747 14.698 8.62552 14.697 9.23858C14.6948 10.5537 14.2886 11.5912 13.5072 12.2772C13.1745 12.5693 12.7556 12.7862 12.597 12.7485C12.4481 12.7131 12.2266 12.4082 11.82 11.6794C11.6239 11.328 11.4239 10.999 11.3756 10.9483C11.1828 10.7463 11.2431 10.7499 8.09319 10.7506L5.16157 10.7512L4.99821 10.8388C4.85735 10.9142 4.79262 11.0015 4.52854 11.4719C4.36008 11.7719 4.16151 12.1056 4.08726 12.2134C3.92035 12.4557 3.62997 12.7139 3.48584 12.7482C3.11624 12.8362 2.32422 12.26 1.91348 11.6045C1.52644 10.9867 1.35029 10.3585 1.31501 9.47025C1.28621 8.74566 1.3282 8.365 1.5518 7.32257C1.88093 5.78837 2.18152 4.78478 2.50179 4.15077C2.71784 3.72318 2.8814 3.50696 3.10541 3.35313C3.33273 3.19698 3.65333 3.18966 3.92639 3.33435ZM4.79401 5.53552C4.64273 5.60194 4.5071 5.73857 4.4496 5.88248C4.42562 5.94243 4.40602 6.22437 4.40602 6.50902V7.02653L3.79623 7.039C3.13261 7.05256 3.07148 7.07115 2.87703 7.31811C2.75896 7.46807 2.75896 7.83544 2.87703 7.98539C3.07135 8.23217 3.1329 8.25095 3.79333 8.26446L4.40022 8.2769L4.41333 8.85239C4.42759 9.47866 4.44739 9.53702 4.70763 9.72128C4.86576 9.83325 5.25318 9.83325 5.41131 9.72128C5.67155 9.53702 5.69135 9.47866 5.70561 8.85239L5.71872 8.2769L6.32561 8.26446C6.98604 8.25095 7.04759 8.23217 7.24191 7.98539C7.35998 7.83544 7.35998 7.46807 7.24191 7.31811C7.04759 7.07134 6.98604 7.05256 6.32561 7.03904L5.71872 7.02661L5.70561 6.45112C5.6914 5.82745 5.67093 5.76602 5.41736 5.58648C5.28201 5.49067 4.95676 5.46406 4.79401 5.53552ZM10.7817 5.85405C9.7462 6.11814 9.10554 7.13486 9.36941 8.0955C9.64263 9.09022 10.7132 9.70382 11.7352 9.45139C12.7811 9.19304 13.4312 8.1769 13.1666 7.21386C12.8909 6.21008 11.8077 5.59241 10.7817 5.85405ZM11.5257 7.08493C11.9453 7.25119 12.0476 7.77286 11.7213 8.08233C11.2625 8.51743 10.5105 8.12772 10.6313 7.51733C10.7034 7.15275 11.1509 6.93641 11.5257 7.08493Z" fill="white"/>
</svg>
