<svg width="16" height="16" viewBox="0 0 16 16" fill="none" xmlns="http://www.w3.org/2000/svg">
<path d="M2 3.33333C2 2.59695 2.59695 2 3.33333 2H12.6667C13.403 2 14 2.59695 14 3.33333V12.6667C14 13.403 13.403 14 12.6667 14H3.33333C2.59695 14 2 13.403 2 12.6667V3.33333ZM12.6667 3.33333H3.33333V12.6667H12.6667V3.33333ZM8 4.66667C8.36819 4.66667 8.66667 4.96514 8.66667 5.33333V10.6667C8.66667 11.0349 8.36819 11.3333 8 11.3333C7.63181 11.3333 7.33333 11.0349 7.33333 10.6667V5.33333C7.33333 4.96514 7.63181 4.66667 8 4.66667ZM10.6667 6C11.0349 6 11.3333 6.29848 11.3333 6.66667V10.6667C11.3333 11.0349 11.0349 11.3333 10.6667 11.3333C10.2985 11.3333 10 11.0349 10 10.6667V6.66667C10 6.29848 10.2985 6 10.6667 6ZM5.33333 7.33333C5.70152 7.33333 6 7.63181 6 8V10.6667C6 11.0349 5.70152 11.3333 5.33333 11.3333C4.96514 11.3333 4.66667 11.0349 4.66667 10.6667V8C4.66667 7.63181 4.96514 7.33333 5.33333 7.33333Z" fill="white"/>
</svg>
