<svg width="136" height="31" viewBox="0 0 136 31" fill="none" xmlns="http://www.w3.org/2000/svg">
<path d="M3.48538 14.08V21.184H13.8854V24H0.509375V1.6H13.7254V4.416H3.48538V11.296H12.9254V14.08H3.48538ZM30.0944 10.752V8H32.8784V24H30.0944V21.248C28.729 23.36 26.713 24.416 24.0464 24.416C21.785 24.416 19.8757 23.6053 18.3184 21.984C16.7397 20.3413 15.9504 18.3467 15.9504 16C15.9504 13.6747 16.7397 11.6907 18.3184 10.048C19.897 8.40533 21.8064 7.584 24.0464 7.584C26.713 7.584 28.729 8.64 30.0944 10.752ZM24.3984 21.728C26.0197 21.728 27.3744 21.184 28.4624 20.096C29.5504 18.9653 30.0944 17.6 30.0944 16C30.0944 14.3787 29.5504 13.024 28.4624 11.936C27.3744 10.8267 26.0197 10.272 24.3984 10.272C22.7984 10.272 21.4544 10.8267 20.3664 11.936C19.2784 13.024 18.7344 14.3787 18.7344 16C18.7344 17.6 19.2784 18.9653 20.3664 20.096C21.4544 21.184 22.7984 21.728 24.3984 21.728ZM39.4651 12.32C39.4651 13.344 40.5211 14.144 42.6331 14.72C43.4225 14.8907 44.0838 15.072 44.6171 15.264C45.1718 15.4347 45.7691 15.7013 46.4091 16.064C47.0705 16.4267 47.5718 16.9067 47.9131 17.504C48.2545 18.1013 48.4251 18.8053 48.4251 19.616C48.4251 21.0667 47.8598 22.2293 46.7291 23.104C45.5985 23.9787 44.1691 24.416 42.4411 24.416C40.9051 24.416 39.5718 24.0853 38.4411 23.424C37.3318 22.7413 36.5425 21.824 36.0731 20.672L38.4731 19.296C38.7291 20.064 39.2091 20.672 39.9131 21.12C40.6171 21.568 41.4598 21.792 42.4411 21.792C43.4011 21.792 44.1691 21.6107 44.7451 21.248C45.3211 20.8853 45.6091 20.3413 45.6091 19.616C45.6091 18.528 44.5531 17.7387 42.4411 17.248C41.7371 17.056 41.2038 16.9067 40.8411 16.8C40.4785 16.6933 39.9771 16.5013 39.3371 16.224C38.7185 15.9467 38.2491 15.6587 37.9291 15.36C37.6091 15.04 37.3105 14.624 37.0331 14.112C36.7771 13.5787 36.6491 12.992 36.6491 12.352C36.6491 10.9653 37.1825 9.824 38.2491 8.928C39.3371 8.032 40.6918 7.584 42.3131 7.584C43.6145 7.584 44.7665 7.88267 45.7691 8.48C46.7931 9.056 47.5611 9.86667 48.0731 10.912L45.7371 12.224C45.1611 10.8587 44.0198 10.176 42.3131 10.176C41.5025 10.176 40.8198 10.368 40.2651 10.752C39.7318 11.136 39.4651 11.6587 39.4651 12.32ZM57.4689 20.544L62.0769 8H65.0529L58.5249 24.992C57.8209 26.8053 56.8502 28.1813 55.6129 29.12C54.3969 30.08 52.9995 30.5067 51.4209 30.4V27.808C53.3835 27.9573 54.8235 26.8693 55.7409 24.544L56.0289 23.936L49.0529 8H52.0289L57.4689 20.544ZM75.6656 1.6H83.7936C85.8416 1.6 87.559 2.29333 88.9456 3.68C90.3323 5.06667 91.0256 6.77333 91.0256 8.8C91.0256 10.8267 90.3323 12.5333 88.9456 13.92C87.559 15.3067 85.8416 16 83.7936 16H78.6416V24H75.6656V1.6ZM78.6416 13.216H83.7936C85.0523 13.216 86.0763 12.8 86.8656 11.968C87.6763 11.0933 88.0816 10.0373 88.0816 8.8C88.0816 7.52 87.6763 6.464 86.8656 5.632C86.055 4.8 85.031 4.384 83.7936 4.384H78.6416V13.216ZM97.0366 24H94.2526V0.639999H97.0366V24ZM114.532 10.752V8H117.316V24H114.532V21.248C113.167 23.36 111.151 24.416 108.484 24.416C106.223 24.416 104.313 23.6053 102.756 21.984C101.177 20.3413 100.388 18.3467 100.388 16C100.388 13.6747 101.177 11.6907 102.756 10.048C104.335 8.40533 106.244 7.584 108.484 7.584C111.151 7.584 113.167 8.64 114.532 10.752ZM108.836 21.728C110.457 21.728 111.812 21.184 112.9 20.096C113.988 18.9653 114.532 17.6 114.532 16C114.532 14.3787 113.988 13.024 112.9 11.936C111.812 10.8267 110.457 10.272 108.836 10.272C107.236 10.272 105.892 10.8267 104.804 11.936C103.716 13.024 103.172 14.3787 103.172 16C103.172 17.6 103.716 18.9653 104.804 20.096C105.892 21.184 107.236 21.728 108.836 21.728ZM128.094 20.544L132.702 8H135.678L129.15 24.992C128.446 26.8053 127.475 28.1813 126.238 29.12C125.022 30.08 123.625 30.5067 122.046 30.4V27.808C124.009 27.9573 125.449 26.8693 126.366 24.544L126.654 23.936L119.678 8H122.654L128.094 20.544Z" fill="url(#paint0_linear_521_6427)"/>
<defs>
<linearGradient id="paint0_linear_521_6427" x1="-2" y1="-1" x2="10.5064" y2="57.7255" gradientUnits="userSpaceOnUse">
<stop stop-color="#8451D9"/>
<stop offset="1" stop-color="#C5A2FF"/>
</linearGradient>
</defs>
</svg>
