<svg width="45" height="32" viewBox="0 0 45 32" fill="none" xmlns="http://www.w3.org/2000/svg">
<path fill-rule="evenodd" clip-rule="evenodd" d="M12.6041 0.36186C4.36385 2.39379 -1.092 10.2894 0.185232 18.3337C2.00437 29.7901 15.3461 35.7026 25.35 29.486C28.5858 27.4751 31.4834 23.8821 30.8289 22.6924C30.6461 22.3602 27.9727 20.7485 24.8882 19.111C21.8034 17.4738 19.2817 16.0657 19.2842 15.9822C19.2864 15.8988 21.7541 14.5335 24.7675 12.9482C27.7812 11.3628 30.4583 9.76085 30.7166 9.38796C31.148 8.76567 31.1218 8.60244 30.3943 7.39517C28.7427 4.65418 25.4669 2.11708 21.9182 0.830322C19.4863 -0.0513829 15.1614 -0.268926 12.6041 0.36186ZM22.1712 4.24488C24.1245 5.18575 27.0658 7.49469 27.0658 8.08786C27.0658 8.19951 24.3288 9.7563 20.9835 11.5476C17.6382 13.3386 14.7552 15.0693 14.5771 15.3933C14.3527 15.8005 14.3527 16.164 14.5771 16.5712C14.7552 16.8952 17.6382 18.6258 20.9835 20.4169C24.3288 22.2082 27.0658 23.765 27.0658 23.8766C27.0658 24.4652 24.132 26.7754 22.208 27.7017C14.2539 31.5319 4.79719 26.6583 3.26102 17.9371C2.15225 11.6411 6.45223 5.1985 12.9931 3.3562C13.8785 3.1068 15.4865 2.99211 17.1796 3.05795C19.5787 3.1514 20.2132 3.30219 22.1712 4.24488ZM12.8035 5.27222C12.4232 5.34383 11.7565 5.8135 11.3216 6.31625C10.2259 7.58238 10.2668 9.01022 11.4351 10.2815C12.1833 11.0958 12.5651 11.2658 13.6508 11.2658C14.7365 11.2658 15.1183 11.0958 15.8665 10.2815C17.4345 8.57483 16.905 6.3736 14.7118 5.48249C14.1394 5.24977 13.6311 5.07804 13.5828 5.1008C13.5344 5.12355 13.1838 5.20062 12.8035 5.27222Z" fill="url(#paint0_linear_508_5773)"/>
<circle cx="42" cy="16" r="3" fill="url(#paint1_linear_508_5773)"/>
<defs>
<linearGradient id="paint0_linear_508_5773" x1="0" y1="0" x2="30.6508" y2="32.3311" gradientUnits="userSpaceOnUse">
<stop stop-color="#8451D9"/>
<stop offset="1" stop-color="#C5A2FF"/>
</linearGradient>
<linearGradient id="paint1_linear_508_5773" x1="39" y1="13" x2="44.7344" y2="19.2439" gradientUnits="userSpaceOnUse">
<stop stop-color="#8451D9"/>
<stop offset="1" stop-color="#C5A2FF"/>
</linearGradient>
</defs>
</svg>
