<svg width="49" height="48" viewBox="0 0 49 48" fill="none" xmlns="http://www.w3.org/2000/svg">
<g clip-path="url(#clip0_506_13397)">
<circle cx="24.5" cy="24" r="23.5" fill="#202020" stroke="white"/>
<path d="M28.7 18C28.7 17.4477 29.1477 17 29.7 17C30.3367 17 30.9624 17.1279 31.5714 17.3715C32.2341 17.6366 32.7442 18.03 33.2071 18.4929C33.67 18.9558 34.0634 19.4659 34.3285 20.1286C34.5721 20.7376 34.7 21.3633 34.7 22C34.7 22.6367 34.5721 23.2624 34.3285 23.8714C34.0667 24.5258 33.6798 25.0314 33.2245 25.4897L32.2399 26.5727C32.2293 26.5844 32.2183 26.5959 32.2071 26.6071L29.0071 29.8071C28.5442 30.27 28.0341 30.6634 27.3714 30.9285C26.7624 31.1721 26.1367 31.3 25.5 31.3C24.8633 31.3 24.2376 31.1721 23.6286 30.9285C22.9659 30.6634 22.4558 30.27 21.9929 29.8071C21.53 29.3442 21.1366 28.8341 20.8715 28.1714C20.6233 27.5507 20.5 26.9244 20.5 26.2C20.5 25.5633 20.6279 24.9376 20.8715 24.3286C21.1366 23.6659 21.53 23.1558 21.9929 22.6929L23.0929 21.5929C23.4834 21.2024 24.1166 21.2024 24.5071 21.5929C24.8976 21.9834 24.8976 22.6166 24.5071 23.0071L23.4071 24.1071C23.07 24.4442 22.8634 24.7341 22.7285 25.0714C22.5721 25.4624 22.5 25.8367 22.5 26.2C22.5 26.6756 22.5767 27.0493 22.7285 27.4286C22.8634 27.7659 23.07 28.0558 23.4071 28.3929C23.7442 28.73 24.0341 28.9366 24.3714 29.0715C24.7624 29.2279 25.1367 29.3 25.5 29.3C25.8633 29.3 26.2376 29.2279 26.6286 29.0715C26.9659 28.9366 27.2558 28.73 27.5929 28.3929L30.7761 25.2097L31.7601 24.1273C31.7707 24.1156 31.7817 24.1041 31.7929 24.0929C32.13 23.7558 32.3366 23.4659 32.4715 23.1286C32.6279 22.7376 32.7 22.3633 32.7 22C32.7 21.6367 32.6279 21.2624 32.4715 20.8714C32.3366 20.5341 32.13 20.2442 31.7929 19.9071C31.4558 19.57 31.1659 19.3634 30.8286 19.2285C30.4376 19.0721 30.0633 19 29.7 19C29.1477 19 28.7 18.5523 28.7 18ZM23.8 19.5C23.4367 19.5 23.0624 19.5721 22.6714 19.7285C22.3341 19.8634 22.0442 20.07 21.7071 20.4071L18.4239 23.6903L17.4399 24.7727C17.4293 24.7844 17.4183 24.7959 17.4071 24.8071C17.07 25.1442 16.8634 25.4341 16.7285 25.7714C16.5721 26.1624 16.5 26.5367 16.5 26.9C16.5 27.2633 16.5721 27.6376 16.7285 28.0286C16.8634 28.3659 17.07 28.6558 17.4071 28.9929C17.7442 29.33 18.0341 29.5366 18.3714 29.6715C18.7624 29.8279 19.1367 29.9 19.5 29.9C20.0523 29.9 20.5 30.3477 20.5 30.9C20.5 31.4523 20.0523 31.9 19.5 31.9C18.8633 31.9 18.2376 31.7721 17.6286 31.5285C16.9659 31.2634 16.4558 30.87 15.9929 30.4071C15.53 29.9442 15.1366 29.4341 14.8715 28.7714C14.6279 28.1624 14.5 27.5367 14.5 26.9C14.5 26.2633 14.6279 25.6376 14.8715 25.0286C15.1333 24.3742 15.5202 23.8686 15.9755 23.4103L16.9601 22.3273C16.9707 22.3156 16.9817 22.3041 16.9929 22.2929L20.2929 18.9929C20.7558 18.53 21.2659 18.1366 21.9286 17.8715C22.5376 17.6279 23.1633 17.5 23.8 17.5C24.4367 17.5 25.0624 17.6279 25.6714 17.8715C26.3341 18.1366 26.8442 18.53 27.3071 18.9929C27.77 19.4558 28.1634 19.9659 28.4285 20.6286C28.6721 21.2376 28.8 21.8633 28.8 22.5C28.8 23.1367 28.6721 23.7624 28.4285 24.3714C28.1664 25.0265 27.779 25.5325 27.323 25.9912L26.2372 27.1757C25.864 27.5828 25.2314 27.6103 24.8243 27.2372C24.4172 26.864 24.3897 26.2314 24.7628 25.8243L25.8628 24.6243C25.8726 24.6136 25.8827 24.6031 25.8929 24.5929C26.23 24.2558 26.4366 23.9659 26.5715 23.6286C26.7279 23.2376 26.8 22.8633 26.8 22.5C26.8 22.1367 26.7279 21.7624 26.5715 21.3714C26.4366 21.0341 26.23 20.7442 25.8929 20.4071C25.5558 20.07 25.2659 19.8634 24.9286 19.7285C24.5376 19.5721 24.1633 19.5 23.8 19.5Z" fill="white"/>
</g>
<defs>
<clipPath id="clip0_506_13397">
<rect width="48" height="48" fill="white" transform="translate(0.5)"/>
</clipPath>
</defs>
</svg>
