<svg width="24" height="20" viewBox="0 0 24 20" fill="none" xmlns="http://www.w3.org/2000/svg">
<path fill-rule="evenodd" clip-rule="evenodd" d="M11.4181 0.0693821C10.6171 0.26175 9.89436 0.976397 9.68189 1.78634C9.38047 2.93533 10.0477 4.20039 11.1625 4.59351C11.2886 4.63799 11.3918 4.69635 11.3918 4.72323C11.3918 4.75011 11.3089 5.07531 11.2076 5.44594C10.6614 7.4439 9.94629 8.82634 9.02163 9.67187C8.42654 10.216 7.81352 10.4753 7.1246 10.4742C6.71116 10.4736 6.39651 10.3988 5.96575 10.1986C4.99085 9.74565 3.94436 8.58707 3.23161 7.17156C2.84279 6.39944 2.84655 6.46721 3.17569 6.16464C3.51201 5.8555 3.67236 5.59811 3.77402 5.20406C4.07135 4.05181 3.14707 2.87953 1.9376 2.87478C0.207633 2.86807 -0.654913 4.93446 0.585331 6.11438C0.821632 6.33921 1.12629 6.50726 1.44403 6.58812C1.55897 6.61737 1.66973 6.67066 1.69018 6.70657C1.71068 6.74244 2.12948 8.85736 2.62089 11.4063C3.11226 13.9553 3.52543 16.0775 3.53898 16.1224C3.56235 16.1996 4.00615 16.2039 12.0017 16.2039C19.9972 16.2039 20.441 16.1996 20.4644 16.1224C20.478 16.0775 20.8911 13.9553 21.3825 11.4063C21.8739 8.85736 22.2927 6.74244 22.3132 6.70657C22.3337 6.67066 22.4444 6.61737 22.5594 6.58812C22.8771 6.50726 23.1818 6.33921 23.4181 6.11438C24.2938 5.28124 24.1628 3.85902 23.1488 3.19081C21.9347 2.39069 20.3346 3.15937 20.1843 4.61484C20.1245 5.19483 20.3416 5.71786 20.8277 6.16464C21.1568 6.46721 21.1606 6.39944 20.7718 7.17156C20.3878 7.93428 19.8969 8.6397 19.3733 9.18126C18.5058 10.0786 17.7398 10.4748 16.872 10.4748C15.1256 10.4748 13.6846 8.6969 12.7958 5.44594C12.6945 5.07531 12.6116 4.75011 12.6116 4.72323C12.6116 4.69635 12.7148 4.63799 12.8409 4.59351C13.3691 4.40724 13.8729 3.95749 14.1404 3.43339C15.0531 1.64516 13.3939 -0.405062 11.4181 0.0693821ZM3.80709 17.2583C3.57844 17.3388 3.23072 17.6285 3.08838 17.8571C2.94731 18.0837 2.89763 18.2797 2.89604 18.6154C2.89355 19.1436 3.20299 19.6328 3.68953 19.87L3.95609 20H12.0017H20.0473L20.3139 19.87C20.8004 19.6328 21.1098 19.1436 21.1074 18.6154C21.1051 18.1224 20.9745 17.8361 20.6047 17.5129C20.1956 17.1553 20.8873 17.1816 11.9816 17.1857C5.06437 17.1889 3.97697 17.1986 3.80709 17.2583Z" fill="url(#paint0_linear_912_101)"/>
<defs>
<linearGradient id="paint0_linear_912_101" x1="0" y1="0" x2="18.5178" y2="24.1957" gradientUnits="userSpaceOnUse">
<stop stop-color="#8451D9"/>
<stop offset="1" stop-color="#C5A2FF"/>
</linearGradient>
</defs>
</svg>
