<svg width="26" height="26" viewBox="0 0 26 26" fill="none" xmlns="http://www.w3.org/2000/svg">
<path d="M17.7239 1.05727C18.2446 0.536573 19.0888 0.536573 19.6095 1.05727L24.9428 6.39061C25.4635 6.91131 25.4635 7.75553 24.9428 8.27622L7.60948 25.6096C7.35943 25.8596 7.02029 26.0001 6.66667 26.0001H1.33333C0.596954 26.0001 0 25.4031 0 24.6667V19.3334C0 18.9798 0.140476 18.6407 0.390524 18.3906L13.7236 5.05755L17.7239 1.05727ZM14.6667 7.8857L2.66667 19.8857V23.3334H6.11438L18.1144 11.3334L14.6667 7.8857ZM20 9.4478L22.1144 7.33342L18.6667 3.8857L16.5523 6.00008L20 9.4478Z" fill="white"/>
</svg>
