<svg width="160" height="160" viewBox="0 0 160 160" fill="none" xmlns="http://www.w3.org/2000/svg">
<circle cx="80" cy="80" r="80" fill="#343434"/>
<path d="M77.6436 47.6428C78.9454 46.3411 81.0559 46.3411 82.3577 47.6428L95.691 60.9761C96.9928 62.2779 96.9928 64.3884 95.691 65.6902C94.3893 66.9919 92.2787 66.9919 90.977 65.6902L83.334 58.0472V93.3332C83.334 95.1741 81.8416 96.6665 80.0006 96.6665C78.1597 96.6665 76.6673 95.1741 76.6673 93.3332V58.0472L69.0243 65.6902C67.7226 66.9919 65.612 66.9919 64.3103 65.6902C63.0085 64.3884 63.0085 62.2779 64.3103 60.9761L77.6436 47.6428ZM56.6673 96.6665C58.5083 96.6665 60.0007 98.1589 60.0007 99.9998V106.667H100.001V99.9998C100.001 98.1589 101.493 96.6665 103.334 96.6665C105.175 96.6665 106.667 98.1589 106.667 99.9998V106.667C106.667 110.348 103.683 113.333 100.001 113.333H60.0007C56.3188 113.333 53.334 110.348 53.334 106.667V99.9998C53.334 98.1589 54.8264 96.6665 56.6673 96.6665Z" fill="#858585"/>
</svg>
