<svg width="16" height="16" viewBox="0 0 16 16" xmlns="http://www.w3.org/2000/svg">
<path fill-rule="evenodd" clip-rule="evenodd" d="M7.43556 0.00785341C7.37526 0.014929 7.19203 0.0352165 7.02838 0.052968C5.99499 0.16505 4.85062 0.552641 3.9272 1.10338C2.75195 1.80427 1.79674 2.75906 1.09554 3.93379C0.549075 4.84927 0.186121 5.91314 0.0380322 7.03362C-0.0126774 7.41723 -0.0126774 8.59109 0.0380322 8.9747C0.186121 10.0952 0.549075 11.159 1.09554 12.0745C1.79674 13.2493 2.75195 14.2041 3.9272 14.9049C4.84307 15.4512 5.90741 15.814 7.02838 15.962C7.41216 16.0127 8.58653 16.0127 8.97031 15.962C10.9206 15.7044 12.5738 14.8482 13.923 13.3969C14.6695 12.594 15.2534 11.5953 15.6118 10.5088C15.8943 9.65236 16 8.97041 16 8.00416C16 7.28934 15.9698 6.97354 15.8414 6.34484C15.4013 4.18927 14.0158 2.26293 12.0715 1.10338C11.165 0.562722 10.0839 0.192257 9.00164 0.0513087C8.72695 0.0155551 7.62975 -0.0149074 7.43556 0.00785341ZM8.5788 0.991828C10.266 1.14799 11.6891 1.79465 12.8795 2.94603C14.0656 4.09328 14.7526 5.46622 14.9875 7.15885C15.0676 7.73557 15.0303 8.70229 14.9023 9.36605C14.4615 11.6533 12.8575 13.6073 10.6754 14.5155C9.72827 14.9096 8.53592 15.1027 7.53735 15.0237C5.78291 14.8847 4.34208 14.2451 3.1192 13.0623C1.93308 11.915 1.2461 10.5421 1.01116 8.84947C0.931104 8.27275 0.968439 7.30603 1.09636 6.64227C1.53724 4.35498 3.14118 2.40099 5.32333 1.49285C6.31256 1.08115 7.52601 0.894398 8.5788 0.991828ZM8.59502 4.76521C6.97833 5.20605 5.75976 5.55376 5.71538 5.58688C5.67306 5.61844 5.61261 5.67886 5.58104 5.72116C5.5479 5.76549 5.1986 6.98969 4.75528 8.61519C4.13978 10.872 3.98937 11.4611 3.99924 11.5771C4.02101 11.8333 4.21276 12.0116 4.46649 12.0116C4.60666 12.0116 10.0811 10.5259 10.2438 10.4437C10.3331 10.3986 10.3948 10.3369 10.4399 10.2476C10.4761 10.176 10.8454 8.86472 11.2606 7.33358C11.8609 5.11986 12.0124 4.52254 12.0005 4.417C11.9725 4.16863 11.7716 3.99444 11.5183 3.99888C11.452 4.00004 10.1365 4.3449 8.59502 4.76521ZM10.8183 5.20912C10.8183 5.22158 10.5828 6.09563 10.295 7.15146L9.7718 9.07116L8.353 7.65323C7.57268 6.87338 6.94556 6.23154 6.95944 6.22694C7.06719 6.19103 10.7488 5.19021 10.7791 5.18858C10.8007 5.18739 10.8183 5.19666 10.8183 5.20912ZM9.0552 9.77593C9.02848 9.79866 5.20318 10.8238 5.1909 10.8115C5.18225 10.8028 5.41181 9.92759 5.70103 8.86647L6.22689 6.93716L7.64435 8.35374C8.42394 9.13287 9.05883 9.77283 9.0552 9.77593Z" fill="#fff"/>
</svg>
