<svg width="16" height="16" viewBox="0 0 16 16" fill="none" xmlns="http://www.w3.org/2000/svg">
<path fill-rule="evenodd" clip-rule="evenodd" d="M6.34833 1.0193C5.04044 1.15261 3.68793 1.69975 2.65646 2.51283C1.48417 3.43691 0.583542 4.8003 0.215638 6.2078C0.0496606 6.84281 0.00147864 7.23859 3.94347e-05 7.9789C-0.00143105 8.75298 0.0376151 9.07114 0.219643 9.76888C0.591145 11.1927 1.43618 12.4934 2.59389 13.4234C3.67949 14.2955 5.03606 14.8455 6.4109 14.9709C8.34973 15.1478 10.293 14.5117 11.7766 13.2144C12.2104 12.8351 12.8137 12.1238 12.8754 11.9188C12.9214 11.766 12.8775 11.5905 12.7655 11.4793C12.7243 11.4384 11.6124 10.8303 10.2945 10.128C8.97656 9.42565 7.89801 8.84191 7.89766 8.83082C7.89732 8.81973 8.97797 7.8584 10.2991 6.69456C11.6202 5.53071 12.739 4.53372 12.7852 4.47906C12.9523 4.28141 12.9309 4.07752 12.7126 3.78621C11.6314 2.34339 9.95112 1.35188 8.09724 1.06272C7.72249 1.00426 6.73613 0.979777 6.34833 1.0193ZM7.67143 1.95391C8.87504 2.08441 10.0244 2.5592 10.9632 3.31372C11.2336 3.53106 11.7861 4.08979 11.7711 4.13078C11.7655 4.14601 10.6206 5.16247 9.22674 6.38957C7.8329 7.6167 6.66699 8.66552 6.6358 8.72028C6.56377 8.84686 6.57932 9.07282 6.66865 9.19775C6.71608 9.26406 7.38359 9.63452 9.2079 10.6071C10.5691 11.3327 11.6828 11.9432 11.6828 11.9637C11.6828 12.0124 11.164 12.514 10.8849 12.7349C10.1628 13.3067 9.18897 13.7584 8.28681 13.94C5.82587 14.4354 3.33617 13.4155 1.94669 11.3427C0.439153 9.09388 0.610292 6.16473 2.37106 4.07821C3.64369 2.57017 5.71161 1.74137 7.67143 1.95391ZM5.78516 3.83399C5.52173 3.89962 5.32453 4.01168 5.12588 4.20868C4.5707 4.75928 4.57107 5.62063 5.12676 6.17379C5.93522 6.97861 7.30196 6.54023 7.496 5.41385C7.57206 4.97229 7.4292 4.53659 7.1006 4.20796C6.74777 3.85511 6.25866 3.71607 5.78516 3.83399ZM6.3335 4.78682C6.47232 4.85733 6.58298 5.03677 6.58298 5.19131C6.58298 5.42936 6.35168 5.65851 6.11136 5.65851C5.96585 5.65851 5.77256 5.53738 5.70372 5.40305C5.58818 5.17758 5.6607 4.93143 5.88194 4.79809C6.03174 4.70783 6.17109 4.70434 6.3335 4.78682ZM12.399 6.63603C11.7948 6.8103 11.3092 7.41534 11.3077 7.99572C11.3067 8.37157 11.4783 8.72218 11.8537 9.11154C12.1937 9.46402 12.9673 10.031 13.4258 10.2636C13.6719 10.3885 13.7621 10.36 14.3734 9.96411C15.072 9.51174 15.5965 9.04018 15.8052 8.67702C15.9205 8.4765 16.0005 8.19649 16 7.99572C15.9984 7.39102 15.4758 6.76956 14.8462 6.62367C14.5161 6.54717 14.0633 6.64061 13.7823 6.84328L13.6538 6.93591L13.5254 6.84328C13.2371 6.63535 12.7268 6.54147 12.399 6.63603ZM12.993 7.61801C13.0457 7.65533 13.1349 7.77256 13.1914 7.87846C13.3189 8.11772 13.4501 8.2125 13.6538 8.2125C13.8553 8.2125 13.9888 8.11732 14.1131 7.88512C14.2631 7.60502 14.4553 7.48626 14.6713 7.54021C14.7775 7.56678 14.9827 7.75499 15.0304 7.86971C15.116 8.07543 14.9658 8.33189 14.5605 8.67194C14.2147 8.96201 13.6869 9.30997 13.6272 9.28714C13.5234 9.24749 12.9509 8.84599 12.7272 8.65596C12.3616 8.3455 12.202 8.08795 12.2608 7.90359C12.2898 7.81252 12.4287 7.65433 12.5418 7.58347C12.6622 7.5081 12.8592 7.52317 12.993 7.61801Z" fill="#fff"/>
</svg>
