<svg width="16" height="16" viewBox="0 0 16 16" fill="none" xmlns="http://www.w3.org/2000/svg">
<path fill-rule="evenodd" clip-rule="evenodd" d="M9.50321 0.0446109C8.67763 0.234762 7.96347 0.674762 7.4174 1.32966C7.33122 1.43302 7.18725 1.63739 7.09748 1.78381C7.00769 1.93024 6.92533 2.06094 6.91441 2.07426C6.90348 2.0876 6.77855 2.06934 6.63677 2.03373C4.91694 1.60159 3.16286 2.48594 2.38247 4.17863C1.96388 5.08648 1.89285 5.97036 2.14989 7.07215C2.45521 8.38075 3.24605 9.67202 4.12464 10.2964C4.21083 10.3576 4.2761 10.423 4.26974 10.4416C4.26337 10.4602 4.14812 10.8618 4.0136 11.334C3.75224 12.2515 3.7388 12.3537 3.85689 12.5243C3.97505 12.695 4.06265 12.7148 4.69742 12.7148L5.2788 12.7149L5.29672 12.8167C5.30657 12.8727 5.32804 13.1581 5.34444 13.451C5.37778 14.046 5.34983 14.6993 5.26909 15.2119C5.20823 15.5985 5.22507 15.7185 5.3604 15.8617C5.53048 16.0416 5.76608 16.0464 5.95191 15.8738C6.0687 15.7653 6.09724 15.6836 6.15802 15.2832C6.23887 14.7511 6.26812 14.0114 6.23286 13.3912C6.21513 13.0795 6.19367 12.7999 6.18511 12.7697C6.17066 12.7187 6.21318 12.7149 6.79474 12.7149C7.46539 12.7149 7.50983 12.7062 7.65069 12.5467C7.79078 12.388 7.77524 12.2533 7.50906 11.3187C7.37696 10.8549 7.26893 10.4585 7.26893 10.4378C7.26896 10.4171 7.33092 10.355 7.40662 10.3C7.77453 10.0321 8.16555 9.60923 8.48961 9.12863C8.57091 9.00805 8.62964 8.93757 8.62008 8.97203C8.61055 9.00648 8.53648 9.26297 8.45551 9.54201C8.22749 10.3276 8.23391 10.2922 8.29063 10.4494C8.3198 10.5301 8.38348 10.6212 8.44603 10.6717L8.55202 10.7573L9.14984 10.7674L9.74766 10.7775L9.76749 11.1433C9.82774 12.2533 9.84325 12.7071 9.84378 13.3727C9.84444 14.17 9.80796 14.8316 9.74023 15.252C9.67995 15.6261 9.72237 15.7691 9.93396 15.9056C10.1383 16.0374 10.406 15.9614 10.5302 15.7364C10.7359 15.3639 10.7912 13.3154 10.6555 11.094L10.6359 10.773H11.2478C11.9235 10.773 11.9973 10.7576 12.1318 10.5884C12.2814 10.4003 12.2756 10.3488 11.995 9.38161C11.8544 8.89673 11.7393 8.49165 11.7393 8.48144C11.7393 8.47126 11.8293 8.39324 11.9392 8.30805C12.9271 7.5424 13.6988 6.16455 13.9489 4.71974C14.0106 4.36352 14.0179 3.61657 13.9629 3.28723C13.902 2.92221 13.7612 2.48838 13.5868 2.12835C13.0675 1.05582 12.1129 0.290138 10.9931 0.0478683C10.7054 -0.0143669 9.7682 -0.0164027 9.50321 0.0446109ZM10.9775 1.01244C11.2995 1.10039 11.6551 1.27622 11.9286 1.48272C12.1298 1.63457 12.4805 2.01168 12.6187 2.22472C12.9692 2.76517 13.1646 3.52602 13.1166 4.16319C13.0067 5.61906 12.1079 7.20924 11.0887 7.75091C10.5259 8.05002 9.96203 8.05908 9.43002 7.7775C9.3161 7.71721 9.2229 7.65723 9.2229 7.6442C9.2229 7.63117 9.25568 7.5186 9.2957 7.39407C9.45492 6.89881 9.50421 6.54526 9.50359 5.90255C9.50309 5.39048 9.49367 5.26811 9.43624 5.02556C9.36566 4.72769 9.2563 4.39826 9.15028 4.16422C9.09572 4.04376 9.0895 3.99302 9.10753 3.81512C9.13652 3.52872 9.21938 3.34962 9.43058 3.11694C9.65206 2.87291 9.87153 2.75925 10.1727 2.73253C10.5062 2.70293 10.685 2.53584 10.685 2.25363C10.685 2.08572 10.6313 1.97995 10.4889 1.8675C10.3018 1.71973 9.79875 1.78836 9.34132 2.02411C9.10978 2.14344 9.01783 2.21392 8.82113 2.42277C8.68968 2.5623 8.53849 2.75818 8.48508 2.85804L8.38804 3.03961L8.26517 2.92826C8.19759 2.86703 8.04675 2.74472 7.92998 2.65652L7.71763 2.49609L7.82636 2.31017C8.06857 1.89591 8.52626 1.46337 8.97126 1.22808C9.57956 0.906476 10.3044 0.828549 10.9775 1.01244ZM6.33592 2.93155C7.3713 3.13902 8.25984 4.02037 8.54272 5.12046C8.6348 5.47849 8.65395 6.06276 8.58755 6.48638C8.33282 8.11091 7.23331 9.63131 6.11983 9.89863C5.92097 9.94637 5.53607 9.93772 5.33378 9.881C4.28502 9.58677 3.265 8.18258 2.95571 6.60728C2.87758 6.20922 2.88457 5.54978 2.97084 5.18216C3.09953 4.63392 3.41782 4.06312 3.80796 3.68091C4.49859 3.00437 5.38627 2.74124 6.33592 2.93155ZM5.19659 3.82903C4.60298 4.02012 4.11141 4.48762 3.87256 5.0882C3.79703 5.27807 3.71633 5.67807 3.71633 5.86255C3.71633 6.1405 3.90944 6.3568 4.15739 6.35658C4.43204 6.35636 4.5853 6.17714 4.61334 5.8235C4.63859 5.50468 4.74597 5.27625 4.98524 5.03232C5.19141 4.82209 5.42642 4.69747 5.61959 4.69593C5.78144 4.69462 5.9779 4.63342 6.05055 4.56166C6.25865 4.35616 6.25462 4.06249 6.04081 3.85101C5.96982 3.78079 5.93367 3.77193 5.69014 3.76513C5.47701 3.75918 5.37088 3.77293 5.19659 3.82903ZM11.0424 9.30745C11.1164 9.55933 11.1768 9.78071 11.1768 9.79941C11.1768 9.82309 10.8946 9.83336 10.2443 9.83336C9.73137 9.83336 9.31184 9.8228 9.31199 9.80987C9.3124 9.77388 9.5784 8.88304 9.5935 8.86707C9.60079 8.85936 9.69946 8.86923 9.81279 8.88906C10.0786 8.93548 10.4594 8.93269 10.7032 8.88248C10.809 8.86071 10.8984 8.84436 10.9018 8.84618C10.9053 8.84796 10.9685 9.05556 11.0424 9.30745ZM5.54552 10.8662C5.74861 10.8888 6.07898 10.869 6.32899 10.8194C6.39007 10.8073 6.44001 10.8044 6.44001 10.8131C6.44001 10.8217 6.49996 11.037 6.57323 11.2915C6.64654 11.5461 6.70184 11.7593 6.69619 11.7653C6.6905 11.7713 6.26685 11.7725 5.75474 11.7679L4.82357 11.7596L4.95791 11.2791L5.09226 10.7987L5.21104 10.8204C5.27638 10.8324 5.42689 10.853 5.54552 10.8662Z" fill="#fff"/>
</svg>
