<svg width="16" height="16" viewBox="0 0 16 16" fill="none" xmlns="http://www.w3.org/2000/svg">
<path fill-rule="evenodd" clip-rule="evenodd" d="M7.69812 0.0447288C7.435 0.110573 7.23803 0.22301 7.03962 0.420666C6.83528 0.62426 6.71175 0.848447 6.65484 1.11904C6.63228 1.22632 6.62 1.76785 6.62 2.65673V4.02879L6.48719 3.97785C6.39681 3.94316 6.2545 3.9267 6.04187 3.92632C5.67019 3.9257 5.47206 3.99016 5.19053 4.20341C5.09159 4.27838 3.94041 5.41294 2.63235 6.72469C0.517598 8.84544 0.243411 9.13144 0.157817 9.30597C-0.0922448 9.81572 -0.0433699 10.3623 0.291849 10.8048C0.366817 10.9037 1.50138 12.0549 2.81313 13.363C4.93388 15.4777 5.21988 15.7519 5.39441 15.8375C5.90416 16.0876 6.45069 16.0387 6.89322 15.7035C6.99215 15.6285 8.14334 14.4939 9.4514 13.1822C12.0356 10.5907 11.9676 10.6678 12.0593 10.2259C12.1023 10.0188 12.0821 9.69897 12.014 9.50813L11.9665 9.37532H13.3386C14.2286 9.37532 14.7688 9.36307 14.8763 9.34044C15.4066 9.22875 15.8495 8.78597 15.9603 8.2566C16.0097 8.02072 16.009 1.35007 15.9596 1.11904C15.8444 0.580791 15.4116 0.147729 14.8763 0.0351663C14.6264 -0.0173961 7.91062 -0.00842738 7.69812 0.0447288ZM14.8083 1.00073C14.8877 1.04123 14.9541 1.1076 14.9946 1.18701C15.0565 1.30835 15.0575 1.36448 15.0575 4.68782C15.0575 8.01116 15.0565 8.06729 14.9946 8.18863C14.9541 8.26804 14.8877 8.33441 14.8083 8.37491C14.689 8.43576 14.6272 8.43782 12.926 8.43782H11.1671L9.36228 6.63323L7.5575 4.82863L7.55881 3.06291C7.56028 1.07745 7.55081 1.15973 7.79478 1.01204L7.91687 0.938135L11.3009 0.937978C14.631 0.937822 14.687 0.938822 14.8083 1.00073ZM9.28565 2.47157C9.14321 2.54207 9.02625 2.72913 9.02625 2.88645C9.02625 3.11435 9.26246 3.34407 9.49684 3.34407C9.9699 3.34407 10.1343 2.68363 9.71456 2.46948C9.55784 2.38954 9.45034 2.39007 9.28565 2.47157ZM11.0813 4.28351C10.9493 4.35316 10.8387 4.53754 10.8387 4.68782C10.8387 4.74076 10.8671 4.83957 10.9017 4.90738C10.9724 5.04604 11.1524 5.15657 11.3075 5.15657C11.5453 5.15657 11.7762 4.9256 11.7762 4.68782C11.7762 4.53276 11.6657 4.35273 11.5271 4.28198C11.3731 4.20345 11.2321 4.20391 11.0813 4.28351ZM6.22256 4.88779C6.28094 4.91316 7.32859 5.93916 8.7195 7.3331C10.8691 9.48732 11.1181 9.74707 11.1376 9.85488C11.185 10.1173 11.2539 10.0401 8.6755 12.6154C6.03765 15.2502 6.18556 15.1208 5.90606 15.0364C5.73522 14.9848 0.979317 10.2191 0.948035 10.0682C0.891661 9.79625 0.777411 9.92557 3.36425 7.33313C4.68225 6.01229 5.80281 4.91245 5.85437 4.88904C5.97609 4.83382 6.0975 4.83341 6.22256 4.88779ZM12.9081 6.08354C12.5723 6.24901 12.5736 6.74038 12.9101 6.90329C13.0801 6.9856 13.1593 6.98588 13.327 6.90469C13.4236 6.85794 13.4776 6.80388 13.5244 6.70732C13.6036 6.54357 13.6043 6.4596 13.5279 6.29123C13.4257 6.06607 13.1386 5.96988 12.9081 6.08354ZM6.19656 7.19888C5.99591 7.28973 5.86547 7.54104 5.9155 7.74038C6.01925 8.15366 6.5939 8.22185 6.784 7.84344C6.89115 7.63019 6.82672 7.39816 6.61728 7.2431C6.51191 7.16504 6.31666 7.14454 6.19656 7.19888ZM4.81503 8.56266C4.49853 8.7556 4.51734 9.20029 4.84919 9.37119C5.08938 9.49485 5.3545 9.39519 5.46803 9.13857C5.6465 8.73507 5.19106 8.33338 4.81503 8.56266ZM8.15187 9.21132C7.84715 9.36441 7.81443 9.80479 8.09303 10.0035C8.23218 10.1028 8.48228 10.1078 8.60796 10.014C8.76015 9.90038 8.81834 9.79497 8.82081 9.62844C8.82596 9.28247 8.46196 9.05551 8.15187 9.21132ZM3.54188 9.85694C3.37591 9.93069 3.245 10.1214 3.245 10.2893C3.245 10.3258 3.27313 10.4137 3.3075 10.4847C3.473 10.8265 3.95625 10.8344 4.12775 10.4981C4.24209 10.2738 4.16322 10.0088 3.94488 9.88363C3.807 9.8046 3.67875 9.7961 3.54188 9.85694ZM6.85128 10.5275C6.39175 10.7401 6.536 11.4069 7.04137 11.4064C7.28253 11.4062 7.49465 11.1965 7.49487 10.9582C7.49522 10.612 7.15737 10.386 6.85128 10.5275ZM5.46375 11.881C5.25125 12.0242 5.18884 12.2825 5.31325 12.5039C5.38416 12.63 5.57731 12.7503 5.709 12.7503C5.90609 12.7503 6.13178 12.5577 6.16937 12.3574C6.1975 12.2075 6.11031 11.9887 5.98762 11.9013C5.84113 11.797 5.60209 11.7877 5.46375 11.881Z" fill="#fff"/>
</svg>
