<svg width="16" height="16" viewBox="0 0 16 16" fill="none" xmlns="http://www.w3.org/2000/svg">
<path fill-rule="evenodd" clip-rule="evenodd" d="M3.67831 0.49661C2.32968 1.04305 2.1136 1.16129 1.7187 1.56888C1.28297 2.01863 1.09699 2.38167 0.863718 3.23754C0.532039 4.45463 0.258035 5.92691 0.127311 7.19453C0.0106771 8.32563 6.26219e-05 8.63972 3.13108e-05 10.9638L0 13.2786L0.0843836 13.4383C0.209346 13.675 0.303718 13.7724 0.522865 13.8912L0.720157 13.998L1.68297 14.0079L2.64579 14.0177V14.5303C2.64579 15.2772 2.70572 15.4857 2.99767 15.7545C3.26785 16.0033 3.2407 16 5.00978 16H6.57534L6.74035 15.9255C6.9466 15.8324 7.19151 15.5712 7.26353 15.3677C7.29265 15.2853 7.32427 15.0948 7.33382 14.9443L7.35114 14.6706H8.00435H8.65753V14.8567C8.65753 15.2584 8.76305 15.5276 9.00941 15.7545C9.27959 16.0033 9.25245 16 11.0215 16H12.5871L12.7521 15.9255C12.9564 15.8333 13.2017 15.573 13.2778 15.3677C13.3216 15.2497 13.3362 15.0909 13.3467 14.6179L13.3599 14.0177L14.3199 14.0079L15.2798 13.998L15.4771 13.8912C15.6963 13.7724 15.7907 13.675 15.9156 13.4383L16 13.2786L15.999 10.9326C15.998 8.44578 15.9813 8.04905 15.8253 6.78788C15.6215 5.14089 15.1661 3.06868 14.8595 2.39315C14.6053 1.8331 14.0501 1.2571 13.4939 0.976391C13.4243 0.941294 12.8514 0.707222 12.2208 0.456289L11.0743 0L7.97943 0.00394135L4.88454 0.0078827L3.67831 0.49661ZM10.5988 0.667621C10.5988 0.721861 10.4509 1.08212 10.3434 1.28976C10.2398 1.48992 10.142 1.6163 9.91101 1.84874C9.60567 2.15604 9.40261 2.2949 9.02719 2.45324C8.91191 2.50185 8.7851 2.57617 8.74539 2.6184L8.67319 2.69516L8.66511 8.35441L8.65703 14.0137H8H7.34297L7.33489 8.35519C7.32703 2.84481 7.32524 2.69498 7.26729 2.63098C7.23454 2.59485 7.03183 2.47983 6.81681 2.37538C6.4553 2.1998 6.40301 2.16271 6.12168 1.88259C5.75881 1.52127 5.55742 1.19057 5.41811 0.727273L5.39695 0.656891H7.9979C9.42841 0.656891 10.5988 0.66174 10.5988 0.667621ZM4.78829 0.993157C5.04398 1.81315 5.63792 2.52597 6.41096 2.94075L6.65362 3.07094V9.09838C6.65362 15.7947 6.67269 15.2209 6.447 15.3151C6.29367 15.3791 3.69459 15.3791 3.54126 15.3151C3.31604 15.2211 3.33464 15.7249 3.33464 9.72027C3.33464 3.80077 3.3461 4.15381 3.15078 4.05289C3.03098 3.99102 2.94945 3.99102 2.82965 4.05289C2.6374 4.15221 2.64579 3.97979 2.64579 7.83521V11.3557L1.65166 11.3475L0.657534 11.3392L0.647859 10.6197C0.630387 9.32026 0.71189 7.81385 0.861965 6.66276C1.04473 5.26079 1.489 3.24883 1.73595 2.70473C1.92191 2.29505 2.28146 1.88102 2.63252 1.67241C2.77442 1.58808 4.62268 0.821959 4.69877 0.815953C4.71715 0.814483 4.75745 0.894217 4.78829 0.993157ZM12.2367 1.18469C12.7477 1.38898 13.2458 1.60363 13.3436 1.66172C13.7226 1.88694 14.0731 2.28411 14.264 2.70473C14.447 3.10791 14.8021 4.57766 14.9989 5.74649C15.2408 7.1838 15.3336 8.37346 15.3388 10.1036L15.3425 11.3392L14.3483 11.3475L13.3542 11.3557V7.83521C13.3542 3.97979 13.3626 4.15221 13.1703 4.05289C13.0506 3.99102 12.969 3.99102 12.8492 4.05289C12.6539 4.15381 12.6654 3.80077 12.6654 9.72027C12.6654 15.7249 12.684 15.2211 12.4587 15.3151C12.3054 15.3791 9.70633 15.3791 9.553 15.3151C9.32731 15.2209 9.34638 15.7947 9.34638 9.09838V3.07094L9.58904 2.94075C10.3621 2.52597 10.956 1.81315 11.2117 0.993157C11.2426 0.894217 11.2767 0.813294 11.2876 0.813294C11.2985 0.813294 11.7256 0.980426 12.2367 1.18469ZM2.64579 12.6843V13.3568H1.79729C0.608125 13.3568 0.641879 13.3809 0.641879 12.531V12.0117H1.64384H2.64579V12.6843ZM15.3581 12.531C15.3581 13.3809 15.3919 13.3568 14.2027 13.3568H13.3542V12.6843V12.0117H14.3562H15.3581V12.531Z" fill="#fff"/>
</svg>
