<svg width="16" height="16" viewBox="0 0 16 16" fill="none" xmlns="http://www.w3.org/2000/svg">
<path fill-rule="evenodd" clip-rule="evenodd" d="M11.3213 0.0441705C11.0716 0.111429 10.851 0.235782 10.6914 0.399347C10.5614 0.532518 10.5 0.657654 10.078 1.64783C9.79553 2.31062 9.59491 2.74287 9.57356 2.73468C9.55408 2.72721 9.37816 2.68549 9.18267 2.64203C7.97944 2.37438 6.72911 2.52049 5.60658 3.0599C4.3264 3.6751 3.28576 4.84119 2.81373 6.18954C2.57366 6.87519 2.46337 7.73113 2.52528 8.42807C2.55452 8.75695 2.67556 9.42674 2.73266 9.57558C2.74085 9.59694 2.30859 9.79756 1.6458 10.08C0.400543 10.6107 0.329408 10.6567 0.145551 11.0496C-0.270442 11.9385 0.242201 12.9406 1.21346 13.1372L1.41626 13.1783L1.43724 13.325C1.5288 13.9651 2.03412 14.4704 2.67425 14.562L2.82096 14.583L2.86201 14.7858C2.99178 15.427 3.47524 15.8931 4.10442 15.9838C4.40757 16.0275 4.68186 15.9833 4.96111 15.8458C5.34437 15.6571 5.3858 15.5929 5.9072 14.3794C6.16213 13.786 6.37466 13.2905 6.3795 13.2782C6.38432 13.2659 6.49382 13.2829 6.6228 13.316C7.87694 13.6378 9.21388 13.506 10.3797 12.9456C12.6656 11.8469 13.9087 9.28813 13.3574 6.81656C13.3138 6.62108 13.2721 6.44519 13.2646 6.42571C13.2565 6.40445 13.6903 6.20311 14.3516 5.92129C15.5909 5.39308 15.6512 5.3544 15.844 4.96276C16.2768 4.08359 15.7606 3.06175 14.7838 2.86404L14.581 2.82301L14.5581 2.66323C14.4679 2.03699 13.9622 1.53132 13.336 1.44117L13.1762 1.41819L13.1352 1.21545C13.0173 0.632983 12.6051 0.189318 12.0468 0.043889C11.8217 -0.0147389 11.5396 -0.0146139 11.3213 0.0441705ZM11.9397 1.00601C12.0327 1.05523 12.0986 1.12111 12.1478 1.21417C12.2708 1.44683 12.2372 1.62609 12.0125 1.93459C11.945 2.02733 11.9349 2.06929 11.9461 2.20947C11.9627 2.4159 12.0411 2.52581 12.227 2.60323C12.4104 2.67958 12.5433 2.65482 12.7298 2.50952C12.99 2.3068 13.2728 2.31009 13.481 2.51827C13.6904 2.72768 13.6914 3.00662 13.4838 3.27568C13.3442 3.45663 13.3205 3.59084 13.396 3.77222C13.4734 3.95814 13.5833 4.03653 13.7898 4.05311C13.9299 4.06436 13.9719 4.05423 14.0646 3.98669C14.3731 3.76203 14.5524 3.72838 14.7851 3.85143C15.0281 3.97994 15.1314 4.28999 15.0104 4.52807C14.9592 4.62907 14.8941 4.66231 13.9552 5.06704C13.4049 5.30427 12.9404 5.49854 12.923 5.49876C12.9057 5.49898 12.8186 5.37466 12.7297 5.22245C12.2662 4.42948 11.551 3.71544 10.7622 3.25833C10.6188 3.17519 10.5013 3.09308 10.5011 3.07588C10.501 3.05868 10.695 2.59435 10.9322 2.04403C11.3369 1.10517 11.3702 1.04006 11.4712 0.988785C11.618 0.91421 11.7772 0.920088 11.9397 1.00601ZM8.91417 3.54337C9.32654 3.62767 9.79087 3.7943 10.1405 3.98338C10.4102 4.12921 10.844 4.42339 10.844 4.46038C10.844 4.51097 4.47036 10.8529 4.43896 10.8335C4.37449 10.7936 4.04029 10.2655 3.9084 9.99517C3.60113 9.36508 3.45476 8.72158 3.45476 8.00063C3.45476 6.74912 3.89699 5.68822 4.79161 4.79363C5.59261 3.9926 6.49982 3.57061 7.67029 3.4546C7.93485 3.42837 8.57535 3.47408 8.91417 3.54337ZM11.7323 5.39755C12.3254 6.23866 12.6348 7.39437 12.5338 8.39148C12.4184 9.53171 11.9568 10.4933 11.1525 11.2692C10.5489 11.8515 9.90931 12.2083 9.10441 12.4118C7.93672 12.7069 6.71082 12.5261 5.66912 11.9051C5.49714 11.8025 5.30719 11.6777 5.247 11.6276L5.13756 11.5364L8.32686 8.34583C10.081 6.591 11.5264 5.15522 11.5388 5.15522C11.5512 5.15522 11.6383 5.26428 11.7323 5.39755ZM3.26753 10.7788C3.73124 11.5722 4.42708 12.268 5.22042 12.7317C5.37263 12.8207 5.49702 12.9077 5.49683 12.9251C5.49668 12.9424 5.30216 13.4069 5.06455 13.9572C4.66222 14.8891 4.6252 14.9617 4.52548 15.0143C4.29307 15.1368 3.96134 15.0178 3.83946 14.7681C3.72896 14.5419 3.76485 14.3685 3.98467 14.0667C4.05221 13.9739 4.06234 13.932 4.05108 13.7918C4.03451 13.5854 3.95612 13.4755 3.7702 13.398C3.58881 13.3225 3.45461 13.3463 3.27366 13.4859C3.0046 13.6935 2.72565 13.6924 2.51625 13.483C2.30684 13.2736 2.30578 12.9946 2.51337 12.7256C2.65298 12.5446 2.67675 12.4104 2.6012 12.229C2.52378 12.0431 2.41388 11.9647 2.20744 11.9482C2.06727 11.9369 2.0253 11.947 1.93256 12.0146C1.6307 12.2344 1.45738 12.2703 1.23109 12.1598C0.981383 12.0379 0.862594 11.7065 0.984978 11.4733C1.0377 11.3728 1.10733 11.3373 2.042 10.9347C2.59232 10.6976 3.05681 10.5033 3.07417 10.5029C3.09155 10.5025 3.17857 10.6266 3.26753 10.7788Z" fill="#fff"/>
</svg>
