<svg width="16" height="16" viewBox="0 0 16 16" fill="none" xmlns="http://www.w3.org/2000/svg">
<g clip-path="url(#clip0_156_213)">
<path fill-rule="evenodd" clip-rule="evenodd" d="M3.2527 2.03052C2.78176 2.0588 2.19142 2.15171 1.77101 2.26373C1.41617 2.3583 1.36823 2.4154 1.35139 2.7636L1.33961 3.00652L0.77273 3.00724C0.163917 3.00802 0.122636 3.01839 0.0376049 3.19188C-0.0156139 3.30051 -0.0108639 13.689 0.0424799 13.8009C0.0638236 13.8457 0.133074 13.9089 0.196292 13.9412L0.311292 14L0.711668 13.8217C2.83054 12.8783 5.1677 12.6716 7.57139 13.2152L7.99948 13.312L8.41514 13.2174C8.92686 13.1009 9.5582 12.9981 10.034 12.954C10.7519 12.8873 12.066 12.9284 12.6877 13.0369C13.7272 13.2183 14.5011 13.4508 15.3177 13.827C15.7182 14.0115 15.799 14.0159 15.9249 13.8598L16.0027 13.7633V8.51374C16.0027 2.80527 16.0129 3.13165 15.8317 3.04549C15.7779 3.01989 15.5571 3.00652 15.1887 3.00652H14.6277V2.75978C14.6277 2.48239 14.601 2.40758 14.4783 2.34232C14.2539 2.22287 13.4022 2.07465 12.6857 2.03036C10.8688 1.91808 9.35205 2.38309 8.23827 3.39384L7.98945 3.61965L7.76492 3.40086C7.10155 2.75433 6.13698 2.29663 5.04958 2.11238C4.75633 2.06268 3.92558 1.99126 3.7527 2.00088C3.70973 2.00326 3.48473 2.01663 3.2527 2.03052ZM4.98061 2.77432C6.01689 2.98124 6.7948 3.36834 7.42464 3.99054L7.6902 4.25286V8.27682C7.6902 10.49 7.68289 12.3008 7.67395 12.3008C7.66502 12.3008 7.59823 12.2615 7.52552 12.2134C7.01239 11.8744 6.12948 11.5633 5.28092 11.4226C4.33148 11.2651 3.4737 11.2513 2.21364 11.3732L1.97145 11.3967V7.14083V2.88501L2.22926 2.83309C2.45754 2.78714 2.75808 2.74096 3.09645 2.69991C3.15661 2.6926 3.52926 2.6912 3.92458 2.69677C4.4902 2.7048 4.71517 2.7213 4.98061 2.77432ZM13.3643 2.75971C13.5546 2.78903 13.7796 2.83087 13.8643 2.85272L14.0183 2.89238L14.0263 7.14452L14.0342 11.3967L13.7919 11.3736C13.0817 11.306 12.8145 11.2908 12.3274 11.2903C10.8933 11.2889 9.62992 11.5736 8.63552 12.1222L8.3152 12.2989V8.27653V4.2542L8.52614 4.03792C9.25664 3.2889 10.1097 2.90748 11.5183 2.69997C11.7409 2.6672 13.0359 2.7091 13.3643 2.75971ZM1.3777 7.77793V11.8971L1.4432 11.9705C1.54329 12.0826 1.63176 12.1043 1.8512 12.0705C2.32245 11.9979 3.12626 11.9424 3.70583 11.9425C4.56486 11.9427 5.28858 12.0407 5.97145 12.2494L6.23708 12.3306L5.9402 12.3075C5.47036 12.271 4.11436 12.2839 3.73708 12.3284C2.76639 12.4428 1.71776 12.7079 0.838637 13.061L0.627699 13.1457V8.40224V3.65875H1.0027H1.3777V7.77793ZM15.3777 8.40224V13.1457L15.1668 13.0621C14.1487 12.6585 13.0188 12.3923 11.9272 12.299C11.4981 12.2622 10.3193 12.2734 9.90895 12.318C9.79152 12.3308 9.80958 12.32 10.0183 12.2528C10.369 12.1398 10.9827 12.0171 11.4235 11.9717C11.8943 11.9232 13.2769 11.9522 13.7996 12.0214C14.2469 12.0807 14.4226 12.0847 14.5074 12.0373C14.6632 11.9503 14.659 12.0705 14.659 7.71992V3.65875H15.0183H15.3777V8.40224Z" fill="#fff"/>
</g>
<defs>
<clipPath id="clip0_156_213">
<rect width="16" height="16" fill="white"/>
</clipPath>
</defs>
</svg>
