<svg width="16" height="16" viewBox="0 0 16 16" fill="none" xmlns="http://www.w3.org/2000/svg">
<path fill-rule="evenodd" clip-rule="evenodd" d="M8.93013 0.058844C8.59317 0.148531 8.3546 0.290411 8.0917 0.55744C7.82505 0.828316 7.6884 1.06823 7.59944 1.42148C7.54945 1.62005 7.53864 1.76781 7.53864 2.25218V2.84134H7.02948C6.57994 2.84134 6.50609 2.84872 6.39884 2.90429C6.19323 3.01083 6.15337 3.1337 6.15327 3.66097L6.15321 4.10784L5.90802 4.19581C5.10644 4.48339 4.32831 5.00478 3.67114 5.69466C2.45549 6.97077 1.85495 8.72027 2.02981 10.4761C2.29615 13.1509 4.23547 15.3472 6.79983 15.8783C8.93694 16.3208 11.173 15.5363 12.5557 13.8588C14.2485 11.8052 14.4733 8.98417 13.124 6.72654C12.8071 6.19623 12.2883 5.59209 11.8022 5.18734C11.3251 4.79004 10.5037 4.31902 10.0244 4.16789L9.84743 4.11207V3.6631C9.84743 3.13348 9.80781 3.01099 9.60196 2.90429C9.49465 2.84869 9.42086 2.84134 8.96895 2.84134H8.45745L8.46751 2.23936C8.47727 1.6538 8.47989 1.63253 8.56344 1.45969C8.72536 1.12474 9.00549 0.95112 9.38567 0.950057C9.57684 0.949525 9.64663 0.964411 9.79147 1.03665C9.99067 1.13603 10.1357 1.28857 10.2273 1.49506C10.2788 1.61111 10.2944 1.73257 10.312 2.15336C10.3239 2.43715 10.347 2.71156 10.3635 2.76316C10.4815 3.13339 10.7724 3.4825 11.0881 3.63273C11.7668 3.95564 12.5668 3.69331 12.9029 3.03757C13.1561 2.54338 13.129 2.11887 12.8343 1.96614C12.6804 1.88639 12.5555 1.88639 12.4017 1.96614C12.2651 2.03694 12.1562 2.21709 12.1562 2.37226C12.1562 2.61127 11.9286 2.84134 11.6922 2.84134C11.549 2.84134 11.3588 2.71972 11.2911 2.58485C11.2427 2.4885 11.2327 2.39956 11.2327 2.0658C11.2327 1.36788 11.0875 0.971728 10.6796 0.55744C10.413 0.286565 10.1768 0.14775 9.82908 0.0573742C9.53266 -0.0196167 9.22307 -0.0191164 8.93013 0.058844ZM8.92391 4.15575C8.92391 4.7496 8.96658 4.80683 9.55351 5.00021C11.8521 5.75758 13.3059 8.01856 13.0472 10.4338C12.8317 12.4464 11.4676 14.1693 9.58786 14.8034C7.81668 15.4009 5.88127 14.9591 4.53053 13.6491C3.77165 12.913 3.29881 12.0812 3.06211 11.0658C2.8405 10.1153 2.88301 9.16717 3.18823 8.25135C3.70974 6.68664 4.90908 5.50075 6.49199 4.98461C7.02883 4.80955 7.07688 4.74147 7.07688 4.15575V3.77949H8.0004H8.92391V4.15575ZM6.70794 5.89424C5.20528 6.40397 4.12576 7.702 3.88937 9.28331C3.79702 9.90106 3.84864 10.1585 4.09005 10.2836C4.42541 10.4574 4.76809 10.2223 4.76809 9.81844C4.76809 9.56967 4.82855 9.19628 4.91278 8.92497C5.23191 7.89707 6.01364 7.11159 7.06087 6.7666C7.20245 6.71994 7.34295 6.65023 7.39251 6.60201C7.55557 6.44328 7.57857 6.16205 7.44275 5.98668C7.29419 5.79483 7.0803 5.76793 6.70794 5.89424Z" fill="#fff"/>
</svg>
