<svg width="16" height="16" viewBox="0 0 16 16" fill="none" xmlns="http://www.w3.org/2000/svg">
<path fill-rule="evenodd" clip-rule="evenodd" d="M11.2154 1.02103C10.5757 1.12478 9.96977 1.40707 9.34253 1.89358C9.0059 2.15469 8.87027 2.27718 8.29078 2.84334L7.78145 3.34097L7.47619 3.0403C5.92038 1.50783 4.58538 1.09701 2.96109 1.65079C1.49701 2.14997 0.413918 3.41245 0.0743451 5.01557C-0.0158862 5.44163 -0.0266563 6.42359 0.0567497 6.619C0.0961046 6.71118 0.375409 6.96635 1.29948 7.75418C1.95508 8.31311 2.49146 8.7786 2.49146 8.7886C2.49146 8.79856 2.39638 8.90996 2.28013 9.03611C1.94513 9.39969 1.80186 9.74317 1.80342 10.1789C1.80496 10.5975 1.92891 10.9115 2.2177 11.2285C2.42005 11.4505 2.73413 11.6349 2.97674 11.6742C3.24684 11.718 3.23338 11.7065 3.27029 11.9236C3.37746 12.5541 3.87524 13.0724 4.47483 13.1779C4.69878 13.2172 4.69593 13.214 4.72868 13.4622C4.76089 13.7065 4.94386 14.0549 5.14658 14.258C5.36477 14.4767 5.61327 14.6063 5.94085 14.6726C6.16148 14.7172 6.21023 14.7172 6.43039 14.6727C6.76912 14.6042 6.98803 14.4887 7.24877 14.2409L7.47187 14.0288L7.83856 14.3961C8.21955 14.7776 8.35274 14.8656 8.68261 14.9538C9.51714 15.1769 10.3935 14.5656 10.5006 13.6856L10.5223 13.507L10.709 13.4831C11.3081 13.4062 11.8341 12.8747 11.9499 12.2292C11.9713 12.1099 11.9969 12.012 12.0069 12.0117C12.0168 12.0113 12.1203 11.9904 12.2369 11.965C12.9357 11.813 13.4189 11.2029 13.4178 10.4741C13.4172 10.1229 13.3177 9.80119 13.1229 9.52131C13.0809 9.46092 13.1636 9.36137 14.4844 7.88213C15.2578 7.01594 15.915 6.25662 15.9448 6.19475C15.99 6.10096 15.9991 5.98599 16 5.50372C16.001 4.86409 15.9491 4.53243 15.7612 3.98086C15.2658 2.52608 14.0204 1.40279 12.5492 1.08373C12.2004 1.00811 11.4986 0.97513 11.2154 1.02103ZM12.4946 2.06232C13.4147 2.30466 14.2098 2.94767 14.668 3.81997C14.9213 4.30214 15.0438 4.78538 15.0664 5.39123L15.0814 5.79299L13.9021 7.11076C13.2534 7.83553 12.6537 8.50566 12.5694 8.59993L12.4161 8.77137L10.8749 7.20894C9.23605 5.54756 9.23865 5.54975 8.98862 5.59789C8.89851 5.61525 8.79106 5.70049 8.49247 5.99139C8.28286 6.19565 8.06602 6.3828 8.0106 6.40732C7.88264 6.46389 7.71502 6.46421 7.58593 6.40803C7.43646 6.34304 7.13753 6.00483 7.09698 5.85483C7.05494 5.69943 7.05494 5.69419 7.09705 5.53586C7.12566 5.42822 7.30008 5.23297 8.16918 4.33576C9.4961 2.96592 9.90064 2.60325 10.4438 2.29637C10.6719 2.16758 11.0426 2.0323 11.2943 1.98602C11.5779 1.93389 12.1434 1.96982 12.4946 2.06232ZM4.57905 2.40452C5.05297 2.47128 5.53162 2.68524 6.036 3.05573C6.30638 3.25435 6.82876 3.71188 7.02789 3.92442L7.13418 4.03788L6.7587 4.43459C6.32924 4.88832 6.20829 5.09884 6.15485 5.48553C6.08312 6.00483 6.25006 6.45955 6.6689 6.88577C7.03831 7.26169 7.36711 7.41609 7.79826 7.41609C8.20027 7.41609 8.53702 7.26905 8.8749 6.946L9.08192 6.74805L10.71 8.40664C11.6054 9.31885 12.3696 10.1164 12.4083 10.179C12.5064 10.3377 12.5061 10.6113 12.4077 10.7612C12.2625 10.9824 12.0252 11.0791 11.7828 11.0159C11.6646 10.9851 11.5248 10.8524 10.5663 9.86013C9.97064 9.24361 9.43527 8.70911 9.37653 8.67234C9.07951 8.48647 8.68896 8.72129 8.69166 9.08413C8.69228 9.16548 8.71044 9.26473 8.73204 9.30465C8.75368 9.3446 9.26538 9.89491 9.8692 10.5276C11.0495 11.7642 11.0649 11.7848 11.0241 12.0642C11.0011 12.2217 10.871 12.4011 10.7225 12.4799C10.6184 12.5351 10.3427 12.5413 10.2461 12.4906C10.2085 12.4708 9.77619 12.046 9.28542 11.5466C8.79466 11.0471 8.33123 10.599 8.25556 10.5506C8.09545 10.4484 7.84263 10.3541 7.64883 10.3242L7.51264 10.3033L7.47745 10.0924C7.40487 9.65736 7.08831 9.19958 6.73208 9.01438C6.54677 8.91803 6.26997 8.83028 6.15137 8.83028C6.06064 8.83028 6.06192 8.83311 6.01324 8.52495C5.95203 8.13749 5.58503 7.66052 5.20983 7.48086C4.92351 7.34374 4.61625 7.2965 4.33084 7.34577C3.99546 7.40362 3.74456 7.54375 3.44168 7.84225L3.18225 8.09792L3.1057 8.03824C3.06359 8.00542 2.5542 7.57358 1.97374 7.07861L0.91833 6.17868L0.935394 5.79299C0.944755 5.58086 0.973997 5.30606 1.00039 5.18231C1.31473 3.7078 2.44434 2.62212 3.88986 2.40526C4.15341 2.3657 4.30251 2.36554 4.57905 2.40452ZM4.80047 8.35206C5.04192 8.47207 5.16139 8.75067 5.08948 9.02605C5.05745 9.14867 4.95895 9.26444 4.35899 9.88491C3.97759 10.2794 3.61672 10.6332 3.55705 10.6712C3.42358 10.7563 3.17731 10.7625 3.03316 10.6844C2.7975 10.5568 2.67581 10.2134 2.77784 9.96385C2.84127 9.80871 4.15022 8.4354 4.31393 8.35219C4.4841 8.26573 4.62667 8.2657 4.80047 8.35206ZM6.24223 9.83985C6.51706 9.98725 6.63052 10.3021 6.51295 10.591C6.45275 10.739 5.15761 12.086 4.98957 12.1754C4.79189 12.2806 4.53278 12.2482 4.37367 12.0984C4.28316 12.0133 4.18369 11.8006 4.183 11.6908C4.1815 11.4591 4.235 11.3844 4.91121 10.6742C5.27648 10.2906 5.638 9.93576 5.71455 9.88562C5.87282 9.782 6.09796 9.76249 6.24223 9.83985ZM7.67303 11.3337C7.96032 11.4698 8.0822 11.7912 7.95822 12.0856C7.93424 12.1424 7.58555 12.524 7.18333 12.9335C6.55876 13.5693 6.43258 13.6833 6.31893 13.7142C5.91962 13.8226 5.54552 13.4221 5.65485 13.0032C5.68606 12.8837 5.79167 12.7598 6.40034 12.1289C7.25256 11.2456 7.35368 11.1824 7.67303 11.3337ZM9.52615 13.2152C9.59247 13.3441 9.59006 13.5779 9.52089 13.7266C9.4049 13.9759 9.04601 14.1091 8.81316 13.9892C8.75433 13.9589 8.57675 13.803 8.41855 13.6427L8.13089 13.3513L8.40509 13.0538C8.5559 12.8902 8.71345 12.6903 8.75515 12.6096L8.83101 12.4628L9.15433 12.7919C9.3322 12.973 9.49948 13.1634 9.52615 13.2152Z" fill="#fff"/>
</svg>
