<svg width="16" height="16" viewBox="0 0 16 16" fill="none" xmlns="http://www.w3.org/2000/svg">
<path fill-rule="evenodd" clip-rule="evenodd" d="M6.94115 0.019625C5.93131 0.146415 4.95042 0.633215 4.22397 1.36815C3.38409 2.21781 2.93497 3.23951 2.8823 4.42031C2.86407 4.82943 2.85757 4.86599 2.80337 4.86599C2.6407 4.86599 2.23637 4.97673 2.028 5.07831C1.70416 5.23622 1.36679 5.57425 1.20575 5.90211C0.93208 6.45931 0.931393 7.05961 1.20384 7.61821C1.29033 7.79564 1.37995 7.91373 1.57154 8.10298C1.98224 8.50869 2.31893 8.63988 3.03118 8.67175L3.45605 8.69077L3.64513 8.97547C3.89366 9.34968 4.24501 9.7435 4.55419 9.99451L4.80385 10.1972L4.53821 10.2838C3.9715 10.4686 3.48499 10.7872 3.01008 11.2847C2.09833 12.2396 1.55075 13.633 1.47663 15.1866C1.45785 15.5804 1.4611 15.6189 1.52383 15.7419C1.56875 15.83 1.63236 15.8951 1.71461 15.937C1.83689 15.9995 1.88703 16 7.49824 16C13.1094 16 13.1596 15.9995 13.2819 15.937C13.3641 15.8951 13.4277 15.83 13.4726 15.7419C13.5354 15.6189 13.5386 15.5804 13.5198 15.1866C13.4459 13.6355 12.8974 12.2409 11.9838 11.2811C11.5163 10.7898 10.9728 10.4374 10.4267 10.2715L10.2051 10.2041L10.3122 10.1231C10.6876 9.83917 11.1077 9.38755 11.3796 8.97556L11.5674 8.69096L11.9788 8.67169C12.4372 8.65021 12.6751 8.59929 12.9528 8.46327C13.573 8.15953 14 7.46991 14 6.77222C14 6.28144 13.8156 5.81694 13.4795 5.46072C13.178 5.14124 12.7752 4.93739 12.3401 4.88409L12.165 4.86264L12.1473 4.4499C12.1164 3.72756 11.9609 3.14875 11.6204 2.48906C11.3801 2.02337 11.1142 1.67056 10.7121 1.2839C10.0577 0.654577 9.21658 0.218849 8.35784 0.0643799C8.02069 0.00373709 7.2592 -0.0203136 6.94115 0.019625ZM8.07036 0.971865C8.59707 1.0513 9.12837 1.26075 9.60818 1.57807C9.81511 1.71494 10.4678 2.33265 10.4678 2.39164C10.4678 2.40678 10.4151 2.4003 10.3506 2.37728C10.2861 2.35427 10.1178 2.33481 9.97666 2.33406C9.52563 2.33165 9.21642 2.49063 8.693 2.99406C8.01666 3.64459 7.3748 4.0162 6.3573 4.34641C5.70978 4.55655 4.78466 4.74439 4.02073 4.82089L3.80974 4.842V4.57803C3.80974 4.43285 3.83246 4.18175 3.86022 4.02008C4.20309 2.02281 6.0711 0.670371 8.07036 0.971865ZM10.2234 3.35633C10.5056 3.57647 10.7999 4.10618 11.0533 4.85035L11.2024 5.2882L11.2002 6.13264C11.1981 6.93841 11.1943 6.9908 11.1173 7.27684C10.9589 7.86557 10.7488 8.29411 10.4098 8.71948C9.46033 9.91129 7.90097 10.4006 6.43976 9.96515C5.28801 9.62196 4.30775 8.64117 3.96475 7.4888C3.85515 7.12066 3.80999 6.76055 3.80986 6.25436L3.80974 5.78182L4.19265 5.74351C5.80059 5.5826 7.27983 5.13242 8.31846 4.4879C8.67787 4.26487 8.90909 4.08066 9.2956 3.70939C9.48471 3.52775 9.68867 3.35511 9.74885 3.32574C9.91692 3.24374 10.0936 3.25512 10.2234 3.35633ZM2.88098 6.43757C2.89346 6.90598 2.91415 7.14421 2.96044 7.35237C2.99486 7.50719 3.02774 7.65496 3.03346 7.68077C3.04203 7.7192 3.01008 7.72593 2.85635 7.71792C2.37494 7.69287 1.99281 7.33255 1.94379 6.8575C1.89697 6.40339 2.19273 5.96234 2.62176 5.8465C2.88261 5.77607 2.8621 5.72934 2.88098 6.43757ZM12.5535 5.91837C13.0089 6.13401 13.1994 6.75273 12.9512 7.20923C12.8381 7.41711 12.6317 7.60079 12.4424 7.66216C12.2591 7.72155 11.9815 7.74081 11.99 7.69356C11.9934 7.67479 12.026 7.51998 12.0624 7.34953C12.1115 7.12056 12.1334 6.87818 12.1466 6.42131L12.1643 5.80303L12.2773 5.82204C12.3394 5.83249 12.4637 5.87587 12.5535 5.91837ZM5.52576 6.8135C5.36113 6.92353 5.30508 7.06139 5.31686 7.32732C5.32749 7.56758 5.3736 7.66325 5.53792 7.78601C5.65521 7.87364 5.90152 7.87433 6.01893 7.78735C6.18701 7.66284 6.2479 7.53549 6.24783 7.30865C6.24777 6.94983 6.0761 6.74251 5.77902 6.74251C5.67818 6.74251 5.5986 6.7648 5.52576 6.8135ZM8.76861 6.80187C8.63917 6.88725 8.56671 7.01451 8.54402 7.19628C8.50398 7.51685 8.63955 7.7613 8.9008 7.83961C9.01646 7.8743 9.04988 7.8717 9.17882 7.81825C9.40188 7.72574 9.46758 7.60617 9.4673 7.29301C9.46715 7.09751 9.45364 7.0192 9.40819 6.95021C9.31492 6.80865 9.18998 6.74291 9.01427 6.74291C8.91362 6.74291 8.82616 6.7639 8.76861 6.80187ZM10.0877 11.1464C10.8878 11.3913 11.5907 12.0617 12.0492 13.0175C12.3029 13.5463 12.5046 14.2728 12.5513 14.8255L12.5713 15.0617H7.49824H2.4252L2.44515 14.8255C2.4734 14.4912 2.57396 14.0216 2.6994 13.6385C3.16369 12.2204 4.13442 11.2398 5.232 11.0802C5.28357 11.0727 6.34558 11.0687 7.59201 11.0714C9.84453 11.0762 9.85963 11.0767 10.0877 11.1464Z" fill="#fff"/>
</svg>
