<svg width="16" height="16" viewBox="0 0 16 16" fill="none" xmlns="http://www.w3.org/2000/svg">
<path fill-rule="evenodd" clip-rule="evenodd" d="M6.86138 0.00989143C6.20439 0.0729605 5.51364 0.225422 5.03762 0.412375C3.61349 0.971733 2.61091 2.13543 2.20858 3.6961C2.00309 4.49321 2.01395 4.23436 2.00382 8.58196C1.99519 12.3009 1.99774 12.5319 2.04837 12.6347C2.11455 12.7688 2.25766 12.8707 2.4165 12.8969L2.53656 12.9166L2.4175 13.2288C2.18559 13.8368 2.0342 14.6375 2.02283 15.3161C2.01635 15.7015 2.0488 15.804 2.21837 15.9341L2.30425 16H7.50001H12.6958L12.7798 15.9355C12.9738 15.7863 12.99 15.7353 12.9804 15.301C12.9709 14.87 12.9167 14.4376 12.8168 13.9968C12.751 13.7059 12.5745 13.154 12.4998 13.0053L12.4573 12.9208L12.5998 12.8988C12.7053 12.8825 12.7743 12.846 12.8657 12.7583L12.9891 12.6398L12.9981 8.98328C13.004 6.56112 12.996 5.18415 12.9742 4.90423C12.8645 3.49402 12.389 2.35712 11.5467 1.49062C10.7811 0.703025 9.88768 0.268114 8.62521 0.0684533C8.31572 0.0195005 7.16066 -0.018873 6.86138 0.00989143ZM8.51877 1.00507C9.63904 1.17612 10.51 1.63679 11.1056 2.37337C11.7235 3.13743 12.0292 4.05482 12.0814 5.30174C12.1013 5.77593 12.1001 5.79042 12.0438 5.76548C12.0118 5.75133 11.9103 5.7102 11.8183 5.67411C11.6515 5.60864 11.6414 5.60848 7.50001 5.60848H3.34895L3.18169 5.6753C3.0897 5.71208 2.98834 5.75318 2.95644 5.76664C2.90033 5.7903 2.89905 5.77365 2.91666 5.24593C2.94896 4.27915 3.12437 3.57528 3.49924 2.90809C4.13817 1.77103 5.22353 1.12833 6.78536 0.962187C7.15278 0.923124 8.14228 0.947601 8.51877 1.00507ZM10.7991 6.8057C10.7227 7.91765 10.3142 8.87445 9.62766 9.54949C9.2121 9.95814 8.69999 10.2548 8.18243 10.3868C7.79895 10.4845 7.20107 10.4845 6.81759 10.3868C6.50698 10.3076 6.07664 10.1074 5.79327 9.91019C5.53079 9.72759 5.08494 9.25988 4.90005 8.9732C4.48059 8.32286 4.21565 7.47254 4.21565 6.77671V6.53182H7.5168H10.8179L10.7991 6.8057ZM12.0107 6.98567C12.1051 7.16636 12.1043 7.58831 12.0093 7.77217C11.9307 7.92425 11.7023 8.14035 11.5701 8.1878C11.482 8.21941 11.478 8.21744 11.4969 8.15118C11.6021 7.78125 11.7271 6.98949 11.7271 6.69239C11.7271 6.6225 11.9313 6.83368 12.0107 6.98567ZM3.30351 6.88394C3.30373 7.13171 3.37717 7.63783 3.45572 7.93283C3.48899 8.05784 3.51621 8.17428 3.51621 8.19159C3.51621 8.2089 3.4493 8.18817 3.36756 8.14554C2.9499 7.9277 2.79222 7.39576 3.01851 6.96786C3.09797 6.81762 3.21751 6.68832 3.27703 6.68832C3.2915 6.68832 3.30342 6.77637 3.30351 6.88394ZM5.72415 7.38524C5.56127 7.48136 5.4929 7.62553 5.4929 7.87295C5.4929 8.13446 5.57428 8.29027 5.75897 8.38226C5.97065 8.48774 6.16921 8.42793 6.32637 8.21124C6.37043 8.15052 6.39154 8.06426 6.39999 7.91048C6.41 7.7281 6.40078 7.67467 6.34033 7.56396C6.21117 7.3274 5.95037 7.25178 5.72415 7.38524ZM8.64777 7.38211C8.48021 7.48474 8.40205 7.66963 8.4179 7.92588C8.43097 8.13728 8.48246 8.24223 8.62779 8.35391C8.82324 8.50411 9.1317 8.42599 9.25823 8.19428C9.34059 8.04344 9.34907 7.73667 9.2753 7.57664C9.16676 7.34127 8.86645 7.24815 8.64777 7.38211ZM3.45928 9.15947C3.56587 9.17728 3.72148 9.19243 3.80511 9.19315L3.95716 9.19449L4.12442 9.46674C4.2346 9.64609 4.42375 9.87742 4.67866 10.1446C4.89147 10.3677 5.06253 10.5525 5.05879 10.5552C5.05502 10.558 4.98352 10.5773 4.89989 10.5983C4.6959 10.6493 4.23791 10.8746 3.9991 11.0416C3.78032 11.1945 3.33459 11.6259 3.1969 11.8179C3.12309 11.9209 3.08678 11.9453 3.00683 11.9459L2.90799 11.9467V10.4621V8.97759L3.08675 9.05236C3.18507 9.09346 3.35269 9.14166 3.45928 9.15947ZM12.092 10.4599V11.9467H12.0125C11.9507 11.9467 11.8583 11.8663 11.5982 11.5858C11.3623 11.3316 11.1751 11.1645 10.9649 11.0205C10.6666 10.8161 10.2633 10.6245 10.0456 10.5836C9.98213 10.5717 9.93423 10.5516 9.93913 10.5389C9.94406 10.5262 10.0302 10.4429 10.1305 10.3539C10.3805 10.1321 10.6841 9.76841 10.8796 9.45666L11.0429 9.19637L11.2253 9.1938C11.4519 9.19058 11.7725 9.12238 11.9457 9.0405C12.0178 9.00638 12.0803 8.9773 12.0844 8.97583C12.0886 8.97439 12.092 9.64224 12.092 10.4599ZM9.68325 11.4641C10.6043 11.6586 11.3989 12.524 11.8033 13.7731C11.9069 14.0932 12.0095 14.5643 12.0478 14.8967L12.0686 15.0767H7.50351C4.99271 15.0767 2.9384 15.0679 2.9384 15.0572C2.9384 14.9657 3.0456 14.3225 3.09295 14.1299C3.44708 12.6891 4.35752 11.6255 5.38875 11.4478C5.47113 11.4336 6.41833 11.4203 7.49368 11.4183C9.16712 11.4151 9.48264 11.4217 9.68325 11.4641Z" fill="#fff"/>
</svg>
