<svg width="16" height="16" viewBox="0 0 16 16" fill="none" xmlns="http://www.w3.org/2000/svg">
<path fill-rule="evenodd" clip-rule="evenodd" d="M3.623 3.02965C3.27444 3.09307 3.06947 3.16313 2.79623 3.31238C1.59307 3.96952 0.676081 5.70032 0.205357 8.20271C0.0479271 9.03971 0.000763884 9.5186 1.22784e-05 10.2889C-0.000739327 11.0452 0.0328011 11.3579 0.159791 11.7779C0.44299 12.7146 1.12701 13.1438 2.03896 12.9572C2.77243 12.8071 3.63888 12.2869 4.86988 11.2576C5.34233 10.8625 5.58817 10.7137 6.03403 10.5528C7.38807 10.0642 9.40416 10.1714 10.4989 10.7903C10.6187 10.858 10.9018 11.0683 11.1282 11.2576C12.7005 12.5723 13.7268 13.0868 14.5659 12.9811C15.3034 12.8882 15.7547 12.3517 15.9405 11.3469C16.0183 10.9264 16.0202 9.75478 15.9441 9.15638C15.7121 7.33224 15.1728 5.59998 14.5337 4.62684C13.9662 3.76284 13.3653 3.27486 12.6183 3.07146C12.4055 3.01352 12.2946 3.00327 11.8823 3.00339C11.3214 3.00357 11.1577 3.03009 9.87216 3.32898C8.86479 3.56317 8.34838 3.65234 7.99904 3.65234C7.65649 3.65234 7.17885 3.57062 6.13296 3.33309C5.6694 3.2278 5.12806 3.11345 4.92998 3.07897C4.45647 2.99651 3.91713 2.97615 3.623 3.02965ZM5.10222 3.80603C5.30891 3.84927 5.70238 3.93826 5.97659 4.00383C7.20976 4.29863 7.80299 4.38217 8.29132 4.32974C8.75443 4.28003 9.05081 4.22532 9.90937 4.03103C11.1787 3.7438 11.3138 3.7216 11.7884 3.72237C12.1605 3.72294 12.2412 3.73247 12.4617 3.80191C13.1476 4.01789 13.6529 4.50895 14.1371 5.43014C14.6128 6.33499 14.9416 7.46042 15.1754 8.98454C15.2671 9.58253 15.2793 10.9685 15.196 11.332C15.0099 12.1445 14.6733 12.4164 14.0309 12.2731C13.4343 12.14 12.6776 11.6705 11.6318 10.7846C11.0279 10.2731 10.6883 10.0659 10.1519 9.88177C9.51499 9.66314 9.00678 9.57689 8.21825 9.55368C7.353 9.52819 6.71617 9.60741 5.9791 9.83221C5.32639 10.0313 4.8561 10.3075 4.16272 10.899C3.63146 11.3522 2.94853 11.8255 2.5499 12.0167C1.77847 12.3868 1.29459 12.3592 1.02411 11.9298C0.899183 11.7314 0.840652 11.5511 0.776922 11.168C0.70934 10.7619 0.734957 9.5628 0.824148 8.95754C1.11561 6.97977 1.73253 5.32806 2.49622 4.48084C2.83328 4.10691 3.29364 3.83193 3.72428 3.74723C4.04988 3.68318 4.63413 3.70813 5.10222 3.80603ZM4.12692 4.89775C3.89793 4.92534 3.64145 5.04643 3.47365 5.20611C3.31898 5.35328 3.14498 5.66393 3.14495 5.79298C3.14492 5.87359 3.09634 5.90793 2.98241 5.90793C2.94753 5.90793 2.83068 5.94804 2.72277 5.99704C2.21988 6.22544 1.95716 6.74317 2.09129 7.24143C2.20475 7.66284 2.49158 7.93839 2.93785 8.05462C3.12453 8.10326 3.12904 8.10689 3.15021 8.22488C3.20345 8.52159 3.48646 8.85258 3.80527 8.99095C4.40965 9.25327 5.13072 8.96436 5.36613 8.36558C5.40183 8.27477 5.43105 8.17585 5.43105 8.14578C5.43105 8.10478 5.46334 8.08621 5.56036 8.07143C5.89335 8.02076 6.23608 7.75955 6.39624 7.43434C6.51139 7.20054 6.51687 6.80435 6.40807 6.57848C6.22628 6.20103 5.94537 5.98488 5.52124 5.89609C5.45551 5.88236 5.43531 5.85664 5.41962 5.76678C5.38746 5.58231 5.26235 5.36466 5.09928 5.20948C4.84323 4.96581 4.4932 4.85361 4.12692 4.89775ZM11.1774 5.03803C10.6898 5.25508 10.649 5.91114 11.1054 6.19823C11.2194 6.26999 11.2662 6.28037 11.473 6.27986C11.6775 6.27932 11.7283 6.26803 11.8429 6.19772C11.9159 6.15287 12.0145 6.06025 12.0621 5.99188C12.1375 5.88337 12.1485 5.83861 12.1485 5.63971C12.1485 5.44083 12.1375 5.39601 12.0621 5.28762C11.9271 5.09346 11.7571 5.0022 11.51 4.9913C11.3574 4.98456 11.2699 4.99687 11.1774 5.03803ZM4.51459 5.62814C4.64456 5.70646 4.6858 5.80672 4.7092 6.10134C4.74089 6.50004 4.84217 6.59338 5.24315 6.59338C5.50236 6.59338 5.62528 6.64237 5.71415 6.78111C5.83479 6.96934 5.75963 7.24963 5.56493 7.33769C5.51714 7.35933 5.3583 7.38359 5.21196 7.39164C4.81041 7.41375 4.71076 7.50673 4.71076 7.85944C4.71076 8.21093 4.56658 8.38119 4.26872 8.3814C4.00438 8.38161 3.86521 8.21221 3.86521 7.89032C3.86521 7.50447 3.72819 7.36854 3.33908 7.36836C2.97837 7.36818 2.80043 7.2375 2.80043 6.97276C2.80043 6.72982 2.9806 6.59448 3.30777 6.59171C3.73474 6.58805 3.84131 6.48863 3.86627 6.07065C3.88171 5.81196 3.89001 5.78356 3.97469 5.69943C4.12304 5.55209 4.34066 5.52336 4.51459 5.62814ZM9.82982 6.35687C9.68617 6.39663 9.48505 6.57621 9.42389 6.71935C9.23345 7.16523 9.55354 7.64075 10.0441 7.64069C10.3404 7.64066 10.5603 7.51153 10.6797 7.26742C10.8047 7.01201 10.767 6.76185 10.5728 6.55681C10.3791 6.35234 10.1089 6.27965 9.82982 6.35687ZM12.6183 6.38116C12.2512 6.5414 12.1008 6.92255 12.2699 7.26393C12.3965 7.51919 12.6001 7.64072 12.9014 7.64072C13.2725 7.64072 13.5779 7.35027 13.5779 6.9972C13.5779 6.71018 13.4503 6.51643 13.182 6.396C12.9928 6.31109 12.7909 6.30579 12.6183 6.38116ZM11.2552 7.71198C10.623 7.89744 10.6437 8.7902 11.2842 8.96743C11.7212 9.08831 12.1614 8.77586 12.1635 8.34331C12.1649 8.05676 11.9611 7.78911 11.6815 7.71007C11.4955 7.6575 11.4401 7.65777 11.2552 7.71198Z" fill="#fff"/>
</svg>
