<svg width="16" height="16" viewBox="0 0 16 16" fill="none" xmlns="http://www.w3.org/2000/svg">
<path fill-rule="evenodd" clip-rule="evenodd" d="M7.70332 0.0328607C7.63443 0.0555827 7.54284 0.09242 7.49978 0.114766C7.37556 0.17924 4.96734 2.59 4.87978 2.73754C4.8294 2.82242 4.79473 2.93803 4.78393 3.05715C4.75302 3.39782 4.94194 3.66163 5.31927 3.80482C5.54811 3.89163 5.73731 4.04396 5.86883 4.2474C6.25283 4.8412 6.0394 5.634 5.41246 5.94247C5.17683 6.05843 4.84909 6.0943 4.59091 6.03239C4.24981 5.95061 3.92912 5.66305 3.80008 5.32322C3.70902 5.08351 3.59275 4.94433 3.40812 4.85404C3.26367 4.7834 3.21132 4.77369 3.05202 4.78815C2.93281 4.79895 2.8172 4.8336 2.73224 4.88396C2.65903 4.92737 2.0409 5.52374 1.3586 6.20925C-0.0388459 7.61326 0.000108627 7.56134 0.000108627 8.01901C0.000108627 8.43066 0.00167437 8.43273 1.24781 9.68479C1.85129 10.2911 2.33882 10.7914 2.33118 10.7965C2.02092 11.0037 1.92162 11.0841 1.7643 11.2556C1.55641 11.4824 1.33424 11.902 1.26575 12.1972C1.20973 12.4389 1.2164 12.9227 1.27912 13.1675C1.47408 13.9281 2.07296 14.5267 2.83401 14.7215C3.09949 14.7895 3.57058 14.7895 3.83606 14.7215C4.15327 14.6403 4.5187 14.4455 4.74839 14.2351C4.91874 14.0791 4.99896 13.9801 5.20623 13.67C5.2113 13.6624 5.71182 14.1497 6.3185 14.7528C7.57121 15.9983 7.57328 15.9999 7.98515 15.9999C8.44305 15.9999 8.3911 16.0388 9.79584 14.6421C10.4817 13.9602 11.0784 13.3424 11.1218 13.2692C11.1722 13.1843 11.2069 13.0687 11.2177 12.9496C11.2486 12.6089 11.0597 12.3451 10.6823 12.2019C10.4529 12.1149 10.2642 11.9626 10.1314 11.7573C9.74615 11.1615 9.96203 10.3726 10.5955 10.0612C10.7872 9.96694 10.8255 9.95946 11.1161 9.95946C11.3997 9.95946 11.4476 9.96825 11.6172 10.0515C11.8326 10.1572 12.0706 10.3804 12.1362 10.5382C12.2814 10.8879 12.3716 11.0224 12.5238 11.1164C12.6571 11.1987 12.7071 11.2114 12.8991 11.2114C13.0833 11.2114 13.1444 11.1972 13.2615 11.1276C13.339 11.0815 13.9533 10.49 14.6264 9.81311C16.0167 8.41523 15.9967 8.44159 15.9997 8.00336C16.0026 7.57348 16.0097 7.583 14.7539 6.32211C14.1502 5.71588 13.6625 5.21565 13.6702 5.21042C13.6779 5.20523 13.7662 5.14614 13.8663 5.07907C14.1329 4.90051 14.4027 4.59007 14.5468 4.29616C14.7137 3.95583 14.7746 3.7 14.7746 3.34001C14.7746 2.97631 14.7136 2.72402 14.5401 2.37017C14.2868 1.85401 13.7588 1.43653 13.1676 1.28517C12.9021 1.21722 12.431 1.21722 12.1656 1.28517C11.6762 1.41049 11.1923 1.74471 10.9266 2.14094C10.8595 2.24097 10.8004 2.32916 10.7952 2.3369C10.79 2.34463 10.2895 1.85585 9.68292 1.25074C8.79458 0.364521 8.54967 0.137113 8.42354 0.0814345C8.23275 -0.00278729 7.88313 -0.0263544 7.70332 0.0328607ZM9.26736 2.14639C10.3578 3.23094 10.507 3.36821 10.6446 3.41394C10.8246 3.47375 10.9149 3.47735 11.0807 3.43137C11.2101 3.39544 11.4425 3.2018 11.4981 3.08356C11.5168 3.04388 11.5765 2.9169 11.6309 2.80145C11.7428 2.56393 11.9071 2.40221 12.1532 2.28741C12.8832 1.94693 13.679 2.36344 13.827 3.16337C13.9161 3.64488 13.6232 4.19635 13.1737 4.39349C12.882 4.52144 12.8481 4.5409 12.7544 4.63436C12.6067 4.78168 12.5591 4.90095 12.5591 5.12398C12.5591 5.26018 12.578 5.36362 12.6163 5.43695C12.6478 5.4972 13.2145 6.08932 13.8756 6.75277C14.5368 7.41621 15.0777 7.97907 15.0777 8.00358C15.0777 8.04755 13.049 10.1003 13.0055 10.1003C12.9931 10.1003 12.9317 10.023 12.8689 9.92844C12.5931 9.51306 12.0756 9.15965 11.5828 9.05004C11.2671 8.97987 10.7294 9.00128 10.466 9.09452C9.56274 9.41425 9.00182 10.189 9.00332 11.1147C9.00391 11.4757 9.06563 11.7386 9.22615 12.0637C9.37257 12.3603 9.66276 12.6937 9.92689 12.8689C10.0215 12.9317 10.0988 12.9931 10.0988 13.0055C10.0988 13.0489 8.04502 15.0766 8.00102 15.0766C7.97651 15.0766 7.41336 14.5359 6.74957 13.8751C6.08577 13.2143 5.49335 12.6479 5.43307 12.6165C5.3597 12.5782 5.25621 12.5593 5.11993 12.5593C4.89679 12.5593 4.77745 12.6068 4.63005 12.7545C4.53655 12.8481 4.51707 12.882 4.38906 13.1736C4.19182 13.6228 3.64007 13.9155 3.1583 13.8265C2.63129 13.7292 2.27206 13.3703 2.1747 12.8439C2.08492 12.3584 2.37498 11.8119 2.82788 11.6132C3.12564 11.4826 3.14643 11.4695 3.27178 11.3336C3.45819 11.1315 3.50031 10.9203 3.409 10.6458C3.36325 10.5082 3.22591 10.3592 2.14079 9.26925C1.47149 8.59701 0.923868 8.02708 0.923868 8.00279C0.923868 7.95904 2.95285 5.90642 2.9961 5.90642C3.00846 5.90642 3.0699 5.98375 3.13269 6.07827C3.39948 6.48001 3.92396 6.84225 4.39971 6.95335C5.01972 7.0982 5.74373 6.93063 6.23235 6.52924C6.84213 6.02832 7.13047 5.17481 6.95026 4.40413C6.83909 3.92863 6.47666 3.40443 6.07472 3.13777C5.98015 3.07502 5.90278 3.01361 5.90278 3.00125C5.90278 2.95803 7.95646 0.9301 8.00024 0.9301C8.02454 0.9301 8.59477 1.47743 9.26736 2.14639Z" fill="#fff"/>
</svg>
