<svg width="16" height="16" viewBox="0 0 16 16" fill="none" xmlns="http://www.w3.org/2000/svg">
<path fill-rule="evenodd" clip-rule="evenodd" d="M7.3708 0.0845369C7.21727 0.143157 7.05601 0.219671 7.01243 0.2546C6.96885 0.289529 5.53021 1.0979 3.81541 2.05107C2.1006 3.00417 0.605913 3.86944 0.493886 3.97394C-0.180209 4.60252 -0.161573 5.71165 0.533307 6.31789C0.664327 6.43227 1.2307 6.7832 1.79176 7.09785L2.81197 7.66988V10.5399V13.41L3.03065 13.847C3.41217 14.6095 4.24445 15.2461 5.33834 15.6124C7.26494 16.2574 10.0174 16.0796 11.5382 15.2117C12.1258 14.8764 12.6685 14.3382 12.9144 13.847L13.133 13.41L13.1344 10.5405L13.1358 7.67102L13.9945 7.19254L14.8532 6.71413V10.041V13.3678L15.0292 13.5434C15.2619 13.7759 15.5913 13.7759 15.824 13.5434L16 13.3678L15.9993 9.08786L15.9986 4.80801L15.8278 4.44176C15.7339 4.24035 15.5487 3.9947 15.4164 3.89592C15.284 3.79715 13.6832 2.88721 11.859 1.87392C8.65276 0.0928396 8.52748 0.0305691 8.09614 0.00473042C7.81289 -0.0122329 7.54805 0.0168982 7.3708 0.0845369ZM11.3403 2.88707C13.0951 3.85785 14.6032 4.71704 14.6919 4.79627C14.9327 5.01128 14.9036 5.30038 14.6203 5.50916C14.1387 5.86389 8.12983 9.13818 7.96519 9.1356C7.87066 9.1341 6.32579 8.31577 4.53215 7.31715C1.05825 5.38297 0.952027 5.30825 1.16347 4.94579C1.29341 4.72298 7.69233 1.13304 7.97164 1.12624C8.0765 1.12367 9.46368 1.84873 11.3403 2.88707ZM5.6307 9.23358C7.33962 10.1826 7.56475 10.2835 7.9725 10.2835C8.38305 10.2835 8.6104 10.1819 10.3185 9.23466C11.195 8.74866 11.9287 8.35099 11.9491 8.35099C11.9696 8.35099 11.9863 9.45969 11.9863 10.8148V13.2787L11.7891 13.5156C11.3237 14.075 10.7554 14.4023 9.80019 14.6609C9.31431 14.7924 9.03536 14.8162 7.9725 14.8162C6.90965 14.8162 6.63069 14.7924 6.14481 14.6609C5.18961 14.4023 4.62131 14.075 4.15586 13.5156L3.95875 13.2787V10.8148C3.95875 9.45969 3.97739 8.35099 4.00011 8.35099C4.02283 8.35099 4.75663 8.74816 5.6307 9.23358Z" fill="#fff"/>
</svg>
