<svg width="16" height="16" viewBox="0 0 16 16" fill="none" xmlns="http://www.w3.org/2000/svg">
<path fill-rule="evenodd" clip-rule="evenodd" d="M11.2911 0.0201135C10.7683 0.113792 10.3044 0.376763 9.86215 0.829941L9.70731 0.988619L9.40673 0.692992C9.24142 0.530369 9.06741 0.382587 9.02006 0.364584C8.89922 0.318558 8.73103 0.323819 8.63158 0.376732C8.52972 0.430898 6.17585 2.792 6.12668 2.88931C6.07833 2.98499 6.08362 3.19931 6.13678 3.29997C6.16137 3.34647 6.30926 3.51112 6.46544 3.66589L6.74938 3.9473L5.45942 5.23902L4.16946 6.53073L3.87201 6.23692C3.70842 6.07533 3.54382 5.92749 3.50626 5.90839C3.41848 5.86374 3.19925 5.86365 3.11121 5.90823C3.01401 5.95745 0.655606 8.31402 0.601502 8.41599C0.547992 8.51681 0.543082 8.70025 0.591338 8.79534C0.610415 8.83294 0.760781 9.00042 0.92547 9.16752L1.22489 9.47129L0.867238 9.84068C0.245885 10.4824 0.0494846 10.8768 0.0049817 11.572C-0.0257294 12.0523 0.0854185 12.5041 0.342209 12.9427C0.468869 13.1591 2.62653 15.3542 2.92116 15.5664C3.35731 15.8806 3.74595 16.002 4.30951 16C5.06918 15.9973 5.48141 15.8054 6.17653 15.1313L6.53306 14.7855L6.83642 15.0852C7.00329 15.2501 7.17055 15.4006 7.20811 15.4197C7.30309 15.468 7.48632 15.4631 7.58702 15.4095C7.68888 15.3553 10.0428 12.9942 10.0919 12.8969C10.1403 12.8012 10.135 12.5869 10.0818 12.4863C10.0572 12.4398 9.90934 12.2751 9.75315 12.1203L9.46922 11.8389L10.7592 10.5472L12.0491 9.2555L12.3466 9.54931C12.5102 9.7109 12.6748 9.85875 12.7123 9.87785C12.8079 9.92647 13.022 9.92115 13.1225 9.86767C13.2244 9.8135 15.5783 7.4524 15.6274 7.35509C15.6799 7.25117 15.6689 7.07418 15.6017 6.94474C15.5686 6.88087 15.4217 6.70992 15.2752 6.56492L15.0088 6.30127L15.2437 6.05126C15.7557 5.50634 15.9527 5.08203 15.9951 4.43276C16.0259 3.96117 15.9113 3.49628 15.6575 3.06267C15.5308 2.84632 13.3732 0.651225 13.0785 0.438976C12.8507 0.274881 12.5574 0.133799 12.3 0.0645734C12.074 0.0038011 11.5186 -0.0206832 11.2911 0.0201135ZM12.1982 1.01952C12.297 1.05694 12.4588 1.14874 12.5578 1.22351C12.8649 1.45539 14.7915 3.42571 14.8874 3.60602C15.0538 3.91884 15.1039 4.26134 15.0323 4.59623C14.9716 4.88033 14.8497 5.09073 14.5869 5.36513L14.3393 5.62372L14.0356 5.32872C13.6947 4.99749 13.5821 4.94245 13.3643 5.00059C13.2639 5.02743 13.1474 5.12424 12.7919 5.47669L12.3456 5.91913L11.2133 4.78556L10.081 3.65199L10.5227 3.20517C10.8692 2.85471 10.9718 2.73151 10.9983 2.63407C11.0576 2.41622 11.0021 2.30181 10.6712 1.96044L10.3761 1.65599L10.6344 1.40792C11.0145 1.04291 11.3157 0.918517 11.7684 0.939745C11.9236 0.947009 12.0867 0.977285 12.1982 1.01952ZM9.08664 3.32953L8.28159 4.13554L7.74971 3.60374L7.21786 3.07197L8.02308 2.2654L8.82826 1.45883L9.36001 1.99119L9.89173 2.52352L9.08664 3.32953ZM10.5481 5.46601L11.673 6.59257L11.216 7.05499C10.8113 7.46436 10.7564 7.53243 10.7374 7.64837C10.705 7.84531 10.7945 8.00605 11.1084 8.31539L11.378 8.58109L10.0886 9.87224L8.79924 11.1634L8.48556 10.855C8.15168 10.5267 8.06652 10.4823 7.84885 10.5228C7.75493 10.5403 7.64988 10.6277 7.27206 11.0026L6.81011 11.461L5.67781 10.3274L4.54547 9.19379L5.00335 8.73131C5.38721 8.34363 5.46486 8.24936 5.48363 8.14842C5.52281 7.93761 5.46233 7.8242 5.13896 7.50212L4.8407 7.20505L6.13 5.91399L7.41927 4.62293L7.71737 4.91603C8.05473 5.24766 8.17829 5.30906 8.39202 5.25117C8.48987 5.22465 8.60768 5.12543 8.95329 4.77851C9.19385 4.53705 9.39801 4.33946 9.40692 4.33946C9.41583 4.33946 9.92935 4.84639 10.5481 5.46601ZM14.0126 6.64884L14.536 7.17356L13.7305 7.97956L12.9249 8.78557L12.3938 8.25318L11.8627 7.72079L12.6597 6.92245C13.0981 6.48336 13.464 6.12411 13.4729 6.12411C13.4818 6.12411 13.7247 6.36025 14.0126 6.64884ZM3.83223 7.50923C4.11195 7.78886 4.34078 8.03201 4.34078 8.04954C4.34078 8.06708 3.98194 8.44048 3.54336 8.87931L2.74593 9.67721L2.21415 9.14551L1.68236 8.61381L2.48751 7.8073C2.93032 7.36373 3.29964 7.00079 3.30817 7.00079C3.31671 7.00079 3.55252 7.22957 3.83223 7.50923ZM5.02083 10.9848C5.62724 11.5917 6.1234 12.1019 6.1234 12.1184C6.1234 12.135 5.92781 12.3464 5.68875 12.5882C5.22017 13.0623 5.16673 13.1516 5.21727 13.3759C5.23716 13.4642 5.31722 13.5665 5.55052 13.8014L5.85757 14.1107L5.48228 14.4796C5.21567 14.7417 5.05717 14.8718 4.93499 14.9287C4.4862 15.1379 4.01578 15.1226 3.59192 14.885C3.34911 14.7489 1.23136 12.6267 1.11155 12.3994C0.945985 12.0853 0.896229 11.745 0.966783 11.4092C1.03446 11.0871 1.14004 10.9211 1.53031 10.5231L1.89881 10.1474L2.20774 10.4548C2.44245 10.6884 2.54456 10.7685 2.63278 10.7885C2.8572 10.8392 2.94608 10.7858 3.4182 10.3168C3.65901 10.0776 3.87004 9.88173 3.88715 9.88157C3.90426 9.88142 4.4144 10.3779 5.02083 10.9848ZM8.50029 12.1826L9.01565 12.6993L8.203 13.5134L7.39034 14.3274L6.85868 13.7951L6.32702 13.2629L7.1241 12.4644C7.5625 12.0253 7.93554 11.6659 7.95305 11.6659C7.97057 11.6659 8.21682 11.8985 8.50029 12.1826Z" fill="#fff"/>
</svg>
