<svg width="16" height="16" viewBox="0 0 16 16" fill="none" xmlns="http://www.w3.org/2000/svg">
<path fill-rule="evenodd" clip-rule="evenodd" d="M7.2824 0.0189325C5.73632 0.170303 4.30738 0.739883 3.05451 1.70416C2.44439 2.17374 1.65206 3.05623 1.19418 3.77612C0.996433 4.08703 0.611496 4.87487 0.4736 5.25085C0.319419 5.67128 0.15509 6.31376 0.0742252 6.81229C-0.0247417 7.42247 -0.0247417 8.58097 0.0742252 9.19115C0.214157 10.0537 0.435517 10.7511 0.81441 11.5231C1.22838 12.3665 1.65882 12.9643 2.34811 13.6532C3.03744 14.3421 3.63562 14.7723 4.4795 15.1861C5.25195 15.5647 5.94966 15.786 6.81274 15.9258C7.42327 16.0247 8.58243 16.0247 9.19296 15.9258C10.056 15.786 10.7538 15.5647 11.5262 15.1861C12.3701 14.7723 12.9683 14.3421 13.6576 13.6532C14.3469 12.9643 14.7773 12.3665 15.1913 11.5231C15.4662 10.9628 15.6045 10.5957 15.7527 10.0327C15.95 9.28289 16 8.87188 16 8.00172C16 7.13156 15.95 6.72055 15.7527 5.97077C15.6045 5.40776 15.4662 5.04061 15.1913 4.48038C14.7773 3.63699 14.3469 3.03914 13.6576 2.35021C12.9683 1.66131 12.3701 1.23112 11.5262 0.817383C10.7545 0.439051 10.043 0.213341 9.20862 0.08216C8.74826 0.00979267 7.72032 -0.0239495 7.2824 0.0189325ZM8.99383 1.13189C10.1987 1.30827 11.3481 1.80192 12.3041 2.55354L12.5182 2.72191L10.2684 4.97055C9.03107 6.20731 8.00445 7.2192 7.98707 7.2192C7.96968 7.2192 7.5564 6.82021 7.06868 6.33251L6.18192 5.44586L6.38321 5.17911C7.20541 4.0896 7.66311 2.82611 7.74065 1.43172L7.76223 1.04363L8.20802 1.06288C8.45318 1.07345 8.80683 1.10451 8.99383 1.13189ZM6.68744 1.23293C6.68734 1.4116 6.61337 2.01943 6.56132 2.26917C6.47475 2.68441 6.27942 3.24854 6.09169 3.62537C5.94603 3.91785 5.50159 4.6269 5.44017 4.66484C5.40359 4.68741 3.48135 2.75603 3.50399 2.7194C3.51451 2.70241 3.65485 2.58907 3.81589 2.46756C4.5578 1.90781 5.39225 1.50541 6.29598 1.27159C6.71346 1.16357 6.68747 1.16614 6.68744 1.23293ZM3.70775 4.47594L4.68946 5.45747L4.37756 5.69229C3.75044 6.16443 3.02078 6.50473 2.27784 6.67156C1.98829 6.73657 1.46894 6.81188 1.30849 6.8121C1.143 6.81232 1.14222 6.80284 1.26687 6.31148C1.50483 5.37346 1.95243 4.46408 2.5494 3.70569C2.64088 3.58947 2.71805 3.49441 2.72087 3.49441C2.72372 3.49441 3.16782 3.9361 3.70775 4.47594ZM13.4563 3.70569C14.0565 4.46821 14.5219 5.41916 14.7469 6.34278C14.8277 6.67419 14.9044 7.16868 14.9401 7.58698L14.9594 7.81391L14.4329 7.81454C13.8756 7.81517 13.4391 7.86093 12.9512 7.96982C12.0396 8.17328 11.0353 8.64251 10.3289 9.19506C10.2216 9.27898 10.1229 9.34765 10.1094 9.34765C10.096 9.34765 9.78219 9.04479 9.41209 8.67459L8.73918 8.00153L10.9939 5.74797C12.234 4.50852 13.2579 3.49441 13.2693 3.49441C13.2807 3.49441 13.3648 3.58947 13.4563 3.70569ZM6.33501 7.10167L7.22001 7.98579L4.97293 10.2317C3.737 11.467 2.7168 12.4777 2.70574 12.4777C2.69472 12.4777 2.58642 12.3463 2.46509 12.1857C1.60524 11.0473 1.14012 9.75137 1.06176 8.2756L1.04056 7.87652H1.26296C1.77414 7.87652 2.61608 7.71957 3.22676 7.51045C3.87646 7.288 4.72288 6.8131 5.21549 6.39471C5.32746 6.29958 5.42602 6.22083 5.43453 6.21967C5.44302 6.21852 5.84822 6.61541 6.33501 7.10167ZM9.11873 10.3923C8.18312 11.5894 7.68966 13.0005 7.68966 14.4787V14.9428L7.5409 14.9295C6.33767 14.8216 5.33381 14.5039 4.40371 13.9367C4.11373 13.7599 3.54154 13.3448 3.50393 13.284C3.49341 13.2669 4.49773 12.2405 5.73582 11.003L7.98685 8.75313L8.66446 9.42982L9.34206 10.1065L9.11873 10.3923ZM14.8774 9.01117C14.685 10.2248 14.1936 11.3611 13.4556 12.2987L13.2886 12.5108L12.0942 11.3283C11.4373 10.6779 10.8998 10.1349 10.8998 10.1216C10.8998 10.062 11.5035 9.67262 11.902 9.47517C12.7476 9.05624 13.4524 8.8901 14.4181 8.88212L14.8985 8.87814L14.8774 9.01117ZM11.3176 12.0815L12.5181 13.2816L12.304 13.4499C11.3476 14.2019 10.0227 14.7643 8.94138 14.8773L8.7545 14.8968L8.75506 14.4932C8.7566 13.4282 9.06994 12.3767 9.65331 11.479C9.82525 11.2144 10.0719 10.8864 10.1014 10.8831C10.1101 10.8822 10.6574 11.4214 11.3176 12.0815Z" fill="#fff"/>
</svg>
