<svg width="16" height="16" viewBox="0 0 16 16" fill="none" xmlns="http://www.w3.org/2000/svg">
<path fill-rule="evenodd" clip-rule="evenodd" d="M10.2592 0.0630087C10.2003 0.102616 9.92637 0.385492 9.65037 0.691626C9.24894 1.13687 9.13654 1.24481 9.08863 1.23103C8.91748 1.18188 8.36734 1.08579 8.09683 1.05781C7.6718 1.01383 7.33912 1.01792 6.90358 1.07244C5.77506 1.21377 4.8555 1.66483 4.07138 2.46163C2.87545 3.67694 2.22251 5.42744 2.02761 7.94078C1.99082 8.41553 2.00773 8.52807 2.13626 8.66328C2.17957 8.70882 2.56396 8.89982 3.06355 9.12405C3.53291 9.33472 3.93193 9.52628 3.9503 9.54976C3.96864 9.57321 3.99268 9.68009 4.00371 9.78725C4.02362 9.98112 4.18654 10.8643 4.21855 10.952C4.23276 10.9909 4.18149 10.9981 3.887 10.9981C3.47041 10.9981 3.34687 11.0495 3.24823 11.2638C3.19393 11.3818 3.18879 11.4568 3.18879 12.1333V12.8737H2.76933C2.27446 12.8737 2.16242 12.9156 2.05944 13.1394C2.00324 13.2615 2 13.3324 2 14.4367C2 15.541 2.00324 15.6119 2.05944 15.734C2.09733 15.8163 2.16078 15.888 2.23437 15.9315L2.34986 15.9997H7.49771C13.1982 15.9997 12.7694 16.0155 12.9152 15.8005C12.9806 15.704 12.9815 15.688 12.9899 14.4749C12.9992 13.1139 12.9978 13.1023 12.8069 12.959C12.7223 12.8955 12.6735 12.8884 12.2607 12.8793L11.8075 12.8693V12.1182C11.8075 11.2855 11.7948 11.216 11.6181 11.0834C11.5335 11.0199 11.4847 11.0128 11.0736 11.0037L10.6221 10.9937L10.613 10.3614L10.6039 9.72901L10.042 8.90211C9.47347 8.06539 9.37234 7.89073 9.37115 7.74381C9.3688 7.4529 9.64386 7.15586 9.91764 7.1537C9.96519 7.15333 10.4801 7.35346 11.0618 7.59845L12.1196 8.04385L12.3722 8.04197C12.634 8.04004 12.7636 8.00058 12.9612 7.86266C13.0573 7.79561 13.681 7.01213 13.8373 6.76226C13.9537 6.5762 14.0209 6.2706 13.9942 6.04896C13.9535 5.71128 13.8688 5.59615 12.4888 4.00246L11.1938 2.50683L11.0519 1.43034C10.9738 0.838269 10.8896 0.307872 10.8647 0.251635C10.7625 0.0208695 10.4611 -0.0730058 10.2592 0.0630087ZM10.3786 2.9281C10.3991 2.96849 11.0232 3.70408 11.7656 4.56277C12.5078 5.42147 13.1152 6.14818 13.1152 6.17766C13.1152 6.23999 12.4794 7.08518 12.4121 7.11235C12.3872 7.12241 11.9053 6.93719 11.3412 6.70074C10.644 6.40852 10.2508 6.26034 10.1133 6.23793C9.74214 6.1775 9.32874 6.29695 9.0294 6.55106C8.50301 6.9979 8.33447 7.75703 8.62459 8.37415C8.66956 8.4698 8.93602 8.88629 9.21676 9.29971L9.72713 10.0513V10.5247V10.9981H7.43987H5.15258L5.12209 10.8789C5.04324 10.5709 4.93949 10.0358 4.88157 9.63823C4.80052 9.08195 4.77006 7.94988 4.82189 7.42108C5.07739 4.81451 6.53092 3.08246 9.10302 2.31974L9.50423 2.20076L9.83115 1.84517L10.1581 1.48958L10.2496 2.17216C10.3 2.54756 10.358 2.88774 10.3786 2.9281ZM7.40899 1.979C7.40899 1.98741 7.31243 2.04539 7.19445 2.10788C6.50982 2.47054 5.7588 3.10422 5.29048 3.71436C4.73751 4.43482 4.35425 5.25156 4.12642 6.1951C3.9865 6.77464 3.92753 7.23711 3.90964 7.89545C3.90114 8.20925 3.88601 8.46596 3.87603 8.46596C3.86604 8.46596 3.64582 8.37099 3.38663 8.25495L2.91537 8.04394L2.93478 7.79386C2.96776 7.36818 3.06845 6.6878 3.16329 6.24956C3.65465 3.97904 4.81345 2.52205 6.45879 2.10604C6.8628 2.00388 7.40899 1.93086 7.40899 1.979ZM9.51143 4.15901C9.39374 4.23075 9.28134 4.42588 9.28134 4.55839C9.28134 4.69779 9.394 4.88707 9.52201 4.96275C9.83225 5.14615 10.2054 4.8835 10.1654 4.50994C10.1289 4.16861 9.79207 3.98792 9.51143 4.15901ZM10.9159 12.4048V12.8737H7.49815H4.08038V12.4048V11.9359H7.49815H10.9159V12.4048ZM12.1047 14.4367V15.0619H7.49815H2.89159V14.4367V13.8115H7.49815H12.1047V14.4367Z" fill="#fff"/>
</svg>
