<svg width="14" height="14" viewBox="0 0 14 14" fill="none" xmlns="http://www.w3.org/2000/svg">
<path d="M5.66659 1.66667C3.45745 1.66667 1.66659 3.45753 1.66659 5.66667C1.66659 7.87581 3.45745 9.66667 5.66659 9.66667C7.87572 9.66667 9.66659 7.87581 9.66659 5.66667C9.66659 3.45753 7.87572 1.66667 5.66659 1.66667ZM0.333252 5.66667C0.333252 2.72115 2.72107 0.333336 5.66659 0.333336C8.6121 0.333336 10.9999 2.72115 10.9999 5.66667C10.9999 6.89914 10.5819 8.03398 9.87982 8.9371L13.4713 12.5286C13.7317 12.7889 13.7317 13.2111 13.4713 13.4714C13.211 13.7318 12.7889 13.7318 12.5285 13.4714L8.93701 9.87991C8.03389 10.5819 6.89906 11 5.66659 11C2.72107 11 0.333252 8.61219 0.333252 5.66667Z" fill="#858585"/>
</svg>
