<svg width="200" height="32" viewBox="0 0 200 32" fill="none" xmlns="http://www.w3.org/2000/svg">
<path fill-rule="evenodd" clip-rule="evenodd" d="M16.6041 0.36186C8.36385 2.39379 2.908 10.2894 4.18523 18.3337C6.00437 29.7901 19.3461 35.7026 29.35 29.486C32.5858 27.4751 35.4834 23.8821 34.8289 22.6924C34.6461 22.3602 31.9727 20.7485 28.8882 19.111C25.8034 17.4738 23.2817 16.0657 23.2842 15.9822C23.2864 15.8988 25.7541 14.5335 28.7675 12.9482C31.7812 11.3628 34.4583 9.76085 34.7166 9.38796C35.148 8.76567 35.1218 8.60244 34.3943 7.39517C32.7427 4.65418 29.4669 2.11708 25.9182 0.830322C23.4863 -0.0513829 19.1614 -0.268926 16.6041 0.36186ZM26.1712 4.24488C28.1245 5.18575 31.0658 7.49469 31.0658 8.08786C31.0658 8.19951 28.3288 9.7563 24.9835 11.5476C21.6382 13.3386 18.7552 15.0693 18.5771 15.3933C18.3527 15.8005 18.3527 16.164 18.5771 16.5712C18.7552 16.8952 21.6382 18.6258 24.9835 20.4169C28.3288 22.2082 31.0658 23.765 31.0658 23.8766C31.0658 24.4652 28.132 26.7754 26.208 27.7017C18.2539 31.5319 8.79719 26.6583 7.26102 17.9371C6.15225 11.6411 10.4522 5.1985 16.9931 3.3562C17.8785 3.1068 19.4865 2.99211 21.1796 3.05795C23.5787 3.1514 24.2132 3.30219 26.1712 4.24488ZM16.8035 5.27222C16.4232 5.34383 15.7565 5.8135 15.3216 6.31625C14.2259 7.58238 14.2668 9.01022 15.4351 10.2815C16.1833 11.0958 16.5651 11.2658 17.6508 11.2658C18.7365 11.2658 19.1183 11.0958 19.8665 10.2815C21.4345 8.57483 20.905 6.3736 18.7118 5.48249C18.1394 5.24977 17.6311 5.07804 17.5828 5.1008C17.5344 5.12355 17.1838 5.20062 16.8035 5.27222Z" fill="url(#paint0_linear_155_844)"/>
<circle cx="46" cy="16" r="3" fill="url(#paint1_linear_155_844)"/>
<path d="M62.4854 15.08V22.184H72.8854V25H59.5094V2.6H72.7254V5.416H62.4854V12.296H71.9254V15.08H62.4854ZM89.0944 11.752V9H91.8784V25H89.0944V22.248C87.729 24.36 85.713 25.416 83.0464 25.416C80.785 25.416 78.8757 24.6053 77.3184 22.984C75.7397 21.3413 74.9504 19.3467 74.9504 17C74.9504 14.6747 75.7397 12.6907 77.3184 11.048C78.897 9.40533 80.8064 8.584 83.0464 8.584C85.713 8.584 87.729 9.64 89.0944 11.752ZM83.3984 22.728C85.0197 22.728 86.3744 22.184 87.4624 21.096C88.5504 19.9653 89.0944 18.6 89.0944 17C89.0944 15.3787 88.5504 14.024 87.4624 12.936C86.3744 11.8267 85.0197 11.272 83.3984 11.272C81.7984 11.272 80.4544 11.8267 79.3664 12.936C78.2784 14.024 77.7344 15.3787 77.7344 17C77.7344 18.6 78.2784 19.9653 79.3664 21.096C80.4544 22.184 81.7984 22.728 83.3984 22.728ZM98.4651 13.32C98.4651 14.344 99.5211 15.144 101.633 15.72C102.422 15.8907 103.084 16.072 103.617 16.264C104.172 16.4347 104.769 16.7013 105.409 17.064C106.07 17.4267 106.572 17.9067 106.913 18.504C107.254 19.1013 107.425 19.8053 107.425 20.616C107.425 22.0667 106.86 23.2293 105.729 24.104C104.598 24.9787 103.169 25.416 101.441 25.416C99.9051 25.416 98.5718 25.0853 97.4411 24.424C96.3318 23.7413 95.5425 22.824 95.0731 21.672L97.4731 20.296C97.7291 21.064 98.2091 21.672 98.9131 22.12C99.6171 22.568 100.46 22.792 101.441 22.792C102.401 22.792 103.169 22.6107 103.745 22.248C104.321 21.8853 104.609 21.3413 104.609 20.616C104.609 19.528 103.553 18.7387 101.441 18.248C100.737 18.056 100.204 17.9067 99.8411 17.8C99.4785 17.6933 98.9771 17.5013 98.3371 17.224C97.7185 16.9467 97.2491 16.6587 96.9291 16.36C96.6091 16.04 96.3105 15.624 96.0331 15.112C95.7771 14.5787 95.6491 13.992 95.6491 13.352C95.6491 11.9653 96.1825 10.824 97.2491 9.928C98.3371 9.032 99.6918 8.584 101.313 8.584C102.614 8.584 103.766 8.88267 104.769 9.48C105.793 10.056 106.561 10.8667 107.073 11.912L104.737 13.224C104.161 11.8587 103.02 11.176 101.313 11.176C100.502 11.176 99.8198 11.368 99.2651 11.752C98.7318 12.136 98.4651 12.6587 98.4651 13.32ZM116.469 21.544L121.077 9H124.053L117.525 25.992C116.821 27.8053 115.85 29.1813 114.613 30.12C113.397 31.08 112 31.5067 110.421 31.4V28.808C112.384 28.9573 113.824 27.8693 114.741 25.544L115.029 24.936L108.053 9H111.029L116.469 21.544ZM134.666 2.6H142.794C144.842 2.6 146.559 3.29333 147.946 4.68C149.332 6.06667 150.026 7.77333 150.026 9.8C150.026 11.8267 149.332 13.5333 147.946 14.92C146.559 16.3067 144.842 17 142.794 17H137.642V25H134.666V2.6ZM137.642 14.216H142.794C144.052 14.216 145.076 13.8 145.866 12.968C146.676 12.0933 147.082 11.0373 147.082 9.8C147.082 8.52 146.676 7.464 145.866 6.632C145.055 5.8 144.031 5.384 142.794 5.384H137.642V14.216ZM156.037 25H153.253V1.64H156.037V25ZM173.532 11.752V9H176.316V25H173.532V22.248C172.167 24.36 170.151 25.416 167.484 25.416C165.223 25.416 163.313 24.6053 161.756 22.984C160.177 21.3413 159.388 19.3467 159.388 17C159.388 14.6747 160.177 12.6907 161.756 11.048C163.335 9.40533 165.244 8.584 167.484 8.584C170.151 8.584 172.167 9.64 173.532 11.752ZM167.836 22.728C169.457 22.728 170.812 22.184 171.9 21.096C172.988 19.9653 173.532 18.6 173.532 17C173.532 15.3787 172.988 14.024 171.9 12.936C170.812 11.8267 169.457 11.272 167.836 11.272C166.236 11.272 164.892 11.8267 163.804 12.936C162.716 14.024 162.172 15.3787 162.172 17C162.172 18.6 162.716 19.9653 163.804 21.096C164.892 22.184 166.236 22.728 167.836 22.728ZM187.094 21.544L191.702 9H194.678L188.15 25.992C187.446 27.8053 186.475 29.1813 185.238 30.12C184.022 31.08 182.625 31.5067 181.046 31.4V28.808C183.009 28.9573 184.449 27.8693 185.366 25.544L185.654 24.936L178.678 9H181.654L187.094 21.544Z" fill="url(#paint2_linear_155_844)"/>
<defs>
<linearGradient id="paint0_linear_155_844" x1="4" y1="0" x2="34.6508" y2="32.3311" gradientUnits="userSpaceOnUse">
<stop stop-color="#8451D9"/>
<stop offset="1" stop-color="#C5A2FF"/>
</linearGradient>
<linearGradient id="paint1_linear_155_844" x1="43" y1="13" x2="48.7344" y2="19.2439" gradientUnits="userSpaceOnUse">
<stop stop-color="#8451D9"/>
<stop offset="1" stop-color="#C5A2FF"/>
</linearGradient>
<linearGradient id="paint2_linear_155_844" x1="57" y1="0" x2="69.5064" y2="58.7255" gradientUnits="userSpaceOnUse">
<stop stop-color="#8451D9"/>
<stop offset="1" stop-color="#C5A2FF"/>
</linearGradient>
</defs>
</svg>
